/* XPM */
static char * align_left_xpm[] = {
"16 16 96 2",
"  	c None",
". 	c #919191",
"+ 	c #898989",
"@ 	c #AFCBF5",
"# 	c #ACC9F5",
"$ 	c #AAC8F5",
"% 	c #A7C5F5",
"& 	c #A3C3F5",
"* 	c #9FC0F5",
"= 	c #9BBEF5",
"- 	c #7F7F7F",
"; 	c #C2D7F7",
"> 	c #C0D5F7",
", 	c #BED4F7",
"' 	c #BBD2F7",
") 	c #B8D1F7",
"! 	c #B5CFF7",
"~ 	c #B3CDF6",
"{ 	c #96BBF3",
"] 	c #747474",
"^ 	c #AECBF5",
"/ 	c #BDD3F7",
"( 	c #BAD2F7",
"_ 	c #B8D0F7",
": 	c #B4CEF7",
"< 	c #B2CCF6",
"[ 	c #AFCBF6",
"} 	c #94B8F3",
"| 	c #686868",
"1 	c #ABC8F5",
"2 	c #BCD3F7",
"3 	c #B6CFF7",
"4 	c #B4CDF7",
"5 	c #B1CBF6",
"6 	c #AECAF6",
"7 	c #ACC8F6",
"8 	c #90B6F3",
"9 	c #5C5C5C",
"0 	c #99BBF3",
"a 	c #95B8F3",
"b 	c #92B7F3",
"c 	c #8EB6F3",
"d 	c #505050",
"e 	c #434343",
"f 	c #8CB3E6",
"g 	c #89B0E5",
"h 	c #85ACE3",
"i 	c #80A9E2",
"j 	c #7BA3E1",
"k 	c #759EDE",
"l 	c #7099DC",
"m 	c #6A94DA",
"n 	c #363636",
"o 	c #A7C5EC",
"p 	c #A5C4EB",
"q 	c #A3C1EB",
"r 	c #A0BEEA",
"s 	c #9CBAE8",
"t 	c #97B6E6",
"u 	c #93B3E4",
"v 	c #8FAFE3",
"w 	c #8BAAE1",
"x 	c #628CD6",
"y 	c #2B2B2B",
"z 	c #A6C4EC",
"A 	c #A3C2EB",
"B 	c #A0BFEA",
"C 	c #9DBCE8",
"D 	c #99B8E7",
"E 	c #94B4E5",
"F 	c #91AFE4",
"G 	c #8CACE2",
"H 	c #88A8E1",
"I 	c #85A5DF",
"J 	c #5A85D4",
"K 	c #1F1F1F",
"L 	c #A2C0EA",
"M 	c #9EBDE9",
"N 	c #9AB9E8",
"O 	c #96B5E6",
"P 	c #92B1E4",
"Q 	c #8DADE3",
"R 	c #89A9E1",
"S 	c #86A5DF",
"T 	c #83A3DE",
"U 	c #80A0DD",
"V 	c #5883D2",
"W 	c #161616",
"X 	c #83AAE3",
"Y 	c #7DA5E1",
"Z 	c #779FDE",
"` 	c #729BDC",
" .	c #6C96DA",
"..	c #6790D8",
"+.	c #5D86D5",
"@.	c #0E0E0E",
"                                ",
"  .                             ",
"  +   @ @ @ # $ % & * =         ",
"  -   @ ; > , ' ) ! ~ {         ",
"  ]   ^ > / ( _ : < [ }         ",
"  |   1 2 ( 3 4 5 6 7 8         ",
"  9   % & * = 0 a b 8 c         ",
"  d                             ",
"  e   f f f f f g h i j k l m   ",
"  n   f o o p q r s t u v w x   ",
"  y   f z A B C D E F G H I J   ",
"  K   g L M N O P Q R S T U V   ",
"  W   X Y Z `  ...x +.J V V V   ",
"  @.                            ",
"                                ",
"                                "};
