/* XPM */
static char * align_bottom_xpm[] = {
"16 16 105 2",
"  	c None",
". 	c #8CB3E6",
"+ 	c #8CB2E6",
"@ 	c #89B0E5",
"# 	c #A7C5EC",
"$ 	c #A5C4EB",
"% 	c #A3C2EB",
"& 	c #85ACE3",
"* 	c #A1BFEA",
"= 	c #80A9E2",
"- 	c #AFCBF5",
"; 	c #AECBF5",
"> 	c #ACC8F5",
", 	c #ABC8F5",
"' 	c #AAC7F5",
") 	c #88B0E5",
"! 	c #A2C0EB",
"~ 	c #A0BEEA",
"{ 	c #9DBBE8",
"] 	c #7BA2E1",
"^ 	c #ACC9F5",
"/ 	c #C0D5F7",
"( 	c #BED5F7",
"_ 	c #BDD3F7",
": 	c #A6C5F5",
"< 	c #84ACE3",
"[ 	c #9EBDE9",
"} 	c #9CBAE8",
"| 	c #98B8E6",
"1 	c #749DDD",
"2 	c #BDD4F7",
"3 	c #BCD3F7",
"4 	c #BAD2F7",
"5 	c #A2C3F5",
"6 	c #7FA7E1",
"7 	c #9AB9E8",
"8 	c #97B6E6",
"9 	c #94B3E5",
"0 	c #6F96DC",
"a 	c #A7C5F5",
"b 	c #BBD2F7",
"c 	c #BAD1F7",
"d 	c #B8D0F7",
"e 	c #9FC0F5",
"f 	c #79A2E0",
"g 	c #96B5E6",
"h 	c #92B2E4",
"i 	c #8FAFE3",
"j 	c #6892D9",
"k 	c #A5C4F5",
"l 	c #B8D1F7",
"m 	c #B6CFF7",
"n 	c #B4CEF7",
"o 	c #9BBEF5",
"p 	c #739DDD",
"q 	c #91B1E4",
"r 	c #8EADE3",
"s 	c #8BAAE1",
"t 	c #638DD8",
"u 	c #A1C1F5",
"v 	c #B4CDF7",
"w 	c #B2CCF6",
"x 	c #99BBF3",
"y 	c #6E96DA",
"z 	c #8DACE2",
"A 	c #8AA9E1",
"B 	c #86A7E0",
"C 	c #5E88D5",
"D 	c #9DBFF5",
"E 	c #B3CDF7",
"F 	c #B1CCF6",
"G 	c #AFCBF6",
"H 	c #95B8F3",
"I 	c #6791D9",
"J 	c #88A8E1",
"K 	c #85A5DF",
"L 	c #83A3DF",
"M 	c #5A85D4",
"N 	c #9ABCF3",
"O 	c #B0CBF6",
"P 	c #AFCAF6",
"Q 	c #ADC9F6",
"R 	c #92B7F3",
"S 	c #628CD6",
"T 	c #83A2DE",
"U 	c #81A1DE",
"V 	c #5883D2",
"W 	c #96BBF3",
"X 	c #92B8F3",
"Y 	c #91B7F3",
"Z 	c #90B6F3",
"` 	c #5E86D5",
" .	c #A5A5A5",
"..	c #9E9E9E",
"+.	c #959595",
"@.	c #8D8D8D",
"#.	c #838383",
"$.	c #797979",
"%.	c #6F6F6F",
"&.	c #656565",
"*.	c #5B5B5B",
"=.	c #525252",
"-.	c #494949",
";.	c #414141",
">.	c #3A3A3A",
"                                ",
"                . . . + @       ",
"                . # $ % &       ",
"                . $ % * =       ",
"    - ; > , '   ) ! ~ { ]       ",
"    ^ / ( _ :   < [ } | 1       ",
"    , 2 3 4 5   6 7 8 9 0       ",
"    a b c d e   f g h i j       ",
"    k l m n o   p q r s t       ",
"    u m v w x   y z A B C       ",
"    D E F G H   I J K L M       ",
"    N O P Q R   S K T U V       ",
"    W H X Y Z   ` M V V V       ",
"                                ",
"   ...+.@.#.$.%.&.*.=.-.;.>.    ",
"                                "};
