/* XPM */
static char * align_center_xpm[] = {
"16 16 81 1",
" 	c None",
".	c #919191",
"+	c #AFCBF5",
"@	c #ACC9F5",
"#	c #AAC8F5",
"$	c #A7C5F5",
"%	c #A3C3F5",
"&	c #9FC0F5",
"*	c #9BBEF5",
"=	c #C2D7F7",
"-	c #C0D5F7",
";	c #BED4F7",
">	c #BBD2F7",
",	c #B8D1F7",
"'	c #B5CFF7",
")	c #B3CDF6",
"!	c #96BBF3",
"~	c #AECBF5",
"{	c #BDD3F7",
"]	c #BAD2F7",
"^	c #B8D0F7",
"/	c #B4CEF7",
"(	c #B2CCF6",
"_	c #AFCBF6",
":	c #94B8F3",
"<	c #ABC8F5",
"[	c #BCD3F7",
"}	c #B6CFF7",
"|	c #B4CDF7",
"1	c #B1CBF6",
"2	c #AECAF6",
"3	c #ACC8F6",
"4	c #90B6F3",
"5	c #99BBF3",
"6	c #95B8F3",
"7	c #92B7F3",
"8	c #8EB6F3",
"9	c #505050",
"0	c #8CB3E6",
"a	c #88AFE5",
"b	c #84ABE3",
"c	c #7FA7E1",
"d	c #78A2DE",
"e	c #739BDC",
"f	c #6C96DA",
"g	c #6790D8",
"h	c #618CD5",
"i	c #A7C5EC",
"j	c #A6C4EC",
"k	c #A3C2EB",
"l	c #A0BEEA",
"m	c #9CBAE8",
"n	c #97B6E6",
"o	c #92B2E4",
"p	c #8EADE3",
"q	c #89A9E1",
"r	c #85A5DF",
"s	c #5B85D4",
"t	c #A5C4EB",
"u	c #A3C1EB",
"v	c #9FBEEA",
"w	c #9BBAE8",
"x	c #96B5E6",
"y	c #91B1E4",
"z	c #8DACE2",
"A	c #88A8E1",
"B	c #81A2DE",
"C	c #5883D2",
"D	c #A2C0EA",
"E	c #9EBDE9",
"F	c #9AB8E8",
"G	c #95B4E5",
"H	c #91AFE3",
"I	c #8BABE2",
"J	c #87A7E0",
"K	c #83A3DF",
"L	c #81A1DE",
"M	c #7FA0DD",
"N	c #5D86D4",
"O	c #5983D2",
"P	c #0E0E0E",
"                ",
"       .        ",
"   +++@#$%&*    ",
"   +=-;>,')!    ",
"   ~-{]^/(_:    ",
"   <[]}|1234    ",
"   $%&*56748    ",
"       9        ",
" 00000abcdefgh  ",
" 0iijklmnopqrs  ",
" 0ituvwxyzArBC  ",
" 0tDEFGHIJKLMC  ",
" abcdefghNOCCC  ",
"       P        ",
"                ",
"                "};
