/* XPM */
static char * align_middle_xpm[] = {
"16 16 102 2",
"  	c None",
". 	c #8CB3E6",
"+ 	c #89B2E5",
"@ 	c #A7C5EC",
"# 	c #A6C4EC",
"$ 	c #A5C3EB",
"% 	c #86AFE5",
"& 	c #AFCBF5",
"* 	c #AECBF5",
"= 	c #ACC8F5",
"- 	c #ABC8F5",
"; 	c #AAC7F5",
"> 	c #A5C4EB",
", 	c #A3C2EB",
"' 	c #A2C0EA",
") 	c #83AAE3",
"! 	c #ACC9F5",
"~ 	c #C0D5F7",
"{ 	c #BED5F7",
"] 	c #BDD3F7",
"^ 	c #A6C5F5",
"/ 	c #89B0E5",
"( 	c #A3C1EB",
"_ 	c #A1BFEA",
": 	c #9EBDE9",
"< 	c #7DA6E1",
"[ 	c #BDD4F7",
"} 	c #BCD3F7",
"| 	c #BAD2F7",
"1 	c #A2C3F5",
"2 	c #85ACE3",
"3 	c #A0BEEA",
"4 	c #9DBCE8",
"5 	c #9AB9E8",
"6 	c #789FDE",
"7 	c #A7C5F5",
"8 	c #BBD2F7",
"9 	c #BAD1F7",
"0 	c #B8D0F7",
"a 	c #9FC0F5",
"b 	c #80A9E2",
"c 	c #9CBAE8",
"d 	c #99B8E7",
"e 	c #96B5E6",
"f 	c #729BDC",
"g 	c #6A6A6A",
"h 	c #A5C4F5",
"i 	c #B8D1F7",
"j 	c #B6CFF7",
"k 	c #B4CEF7",
"l 	c #9BBEF5",
"m 	c #4A4A4A",
"n 	c #7BA3E1",
"o 	c #97B6E6",
"p 	c #94B4E5",
"q 	c #92B1E4",
"r 	c #6C96DA",
"s 	c #2A2A2A",
"t 	c #A1C1F5",
"u 	c #B4CDF7",
"v 	c #B2CCF6",
"w 	c #99BBF3",
"x 	c #759DDE",
"y 	c #93B3E4",
"z 	c #91AFE3",
"A 	c #8DADE3",
"B 	c #6790D8",
"C 	c #9DBFF5",
"D 	c #B3CDF7",
"E 	c #B1CCF6",
"F 	c #AFCBF6",
"G 	c #95B8F3",
"H 	c #6F99DC",
"I 	c #8FAEE3",
"J 	c #8CACE2",
"K 	c #89A9E1",
"L 	c #628CD6",
"M 	c #9ABCF3",
"N 	c #B0CBF6",
"O 	c #AFCAF6",
"P 	c #ADC9F6",
"Q 	c #92B7F3",
"R 	c #6A92DA",
"S 	c #8AAAE1",
"T 	c #88A8E1",
"U 	c #85A5DF",
"V 	c #5D86D5",
"W 	c #96BBF3",
"X 	c #92B8F3",
"Y 	c #91B7F3",
"Z 	c #90B6F3",
"` 	c #648ED8",
" .	c #86A7E0",
"..	c #83A3DE",
"+.	c #5A85D4",
"@.	c #5F89D5",
"#.	c #83A3DF",
"$.	c #81A2DE",
"%.	c #80A0DD",
"&.	c #5883D2",
"*.	c #5B85D4",
"=.	c #5A84D4",
"                                ",
"                . . . . +       ",
"                . @ # $ %       ",
"    & * = - ;   . > , ' )       ",
"    ! ~ { ] ^   / ( _ : <       ",
"    - [ } | 1   2 3 4 5 6       ",
"    7 8 9 0 a   b c d e f       ",
"  g h i j k l m n o p q r s     ",
"    t j u v w   x y z A B       ",
"    C D E F G   H I J K L       ",
"    M N O P Q   R S T U V       ",
"    W G X Y Z   `  .U ..+.      ",
"                @.#.$.%.&.      ",
"                *.=.&.&.&.      ",
"                                ",
"                                "};
