/* XPM */
static char * align_right_xpm[] = {
"16 16 96 2",
"  	c None",
". 	c #919191",
"+ 	c #AFCBF5",
"@ 	c #ACC9F5",
"# 	c #AAC8F5",
"$ 	c #A7C5F5",
"% 	c #A3C3F5",
"& 	c #9FC0F5",
"* 	c #9BBEF5",
"= 	c #898989",
"- 	c #C2D7F7",
"; 	c #C0D5F7",
"> 	c #BED4F7",
", 	c #BBD2F7",
"' 	c #B8D1F7",
") 	c #B5CFF7",
"! 	c #B3CDF6",
"~ 	c #96BBF3",
"{ 	c #7F7F7F",
"] 	c #AECBF5",
"^ 	c #BDD3F7",
"/ 	c #BAD2F7",
"( 	c #B8D0F7",
"_ 	c #B4CEF7",
": 	c #B2CCF6",
"< 	c #AFCBF6",
"[ 	c #94B8F3",
"} 	c #747474",
"| 	c #ABC8F5",
"1 	c #BCD3F7",
"2 	c #B6CFF7",
"3 	c #B4CDF7",
"4 	c #B1CBF6",
"5 	c #AECAF6",
"6 	c #ACC8F6",
"7 	c #90B6F3",
"8 	c #686868",
"9 	c #99BBF3",
"0 	c #95B8F3",
"a 	c #92B7F3",
"b 	c #8EB6F3",
"c 	c #5C5C5C",
"d 	c #505050",
"e 	c #8CB3E6",
"f 	c #89B0E5",
"g 	c #85ACE3",
"h 	c #80A9E2",
"i 	c #7BA3E1",
"j 	c #759EDE",
"k 	c #7099DC",
"l 	c #6A94DA",
"m 	c #434343",
"n 	c #A7C5EC",
"o 	c #A5C4EB",
"p 	c #A3C1EB",
"q 	c #A0BEEA",
"r 	c #9CBAE8",
"s 	c #97B6E6",
"t 	c #93B3E4",
"u 	c #8FAFE3",
"v 	c #8BAAE1",
"w 	c #628CD6",
"x 	c #363636",
"y 	c #A6C4EC",
"z 	c #A3C2EB",
"A 	c #A0BFEA",
"B 	c #9DBCE8",
"C 	c #99B8E7",
"D 	c #94B4E5",
"E 	c #91AFE4",
"F 	c #8CACE2",
"G 	c #88A8E1",
"H 	c #85A5DF",
"I 	c #5A85D4",
"J 	c #2B2B2B",
"K 	c #A2C0EA",
"L 	c #9EBDE9",
"M 	c #9AB9E8",
"N 	c #96B5E6",
"O 	c #92B1E4",
"P 	c #8DADE3",
"Q 	c #89A9E1",
"R 	c #86A5DF",
"S 	c #83A3DE",
"T 	c #80A0DD",
"U 	c #5883D2",
"V 	c #1F1F1F",
"W 	c #83AAE3",
"X 	c #7DA5E1",
"Y 	c #779FDE",
"Z 	c #729BDC",
"` 	c #6C96DA",
" .	c #6790D8",
"..	c #5D86D5",
"+.	c #161616",
"@.	c #0E0E0E",
"                                ",
"                            .   ",
"        + + + @ # $ % & *   =   ",
"        + - ; > , ' ) ! ~   {   ",
"        ] ; ^ / ( _ : < [   }   ",
"        | 1 / 2 3 4 5 6 7   8   ",
"        $ % & * 9 0 a 7 b   c   ",
"                            d   ",
"  e e e e e f g h i j k l   m   ",
"  e n n o p q r s t u v w   x   ",
"  e y z A B C D E F G H I   J   ",
"  f K L M N O P Q R S T U   V   ",
"  W X Y Z `  .w ..I U U U   +.  ",
"                            @.  ",
"                                ",
"                                "};
