/* XPM */
static char * align_top_xpm[] = {
"16 16 105 2",
"  	c None",
". 	c #A5A5A5",
"+ 	c #9E9E9E",
"@ 	c #959595",
"# 	c #8D8D8D",
"$ 	c #838383",
"% 	c #797979",
"& 	c #6F6F6F",
"* 	c #656565",
"= 	c #5B5B5B",
"- 	c #525252",
"; 	c #494949",
"> 	c #414141",
", 	c #3A3A3A",
"' 	c #AFCBF5",
") 	c #AECBF5",
"! 	c #ACC8F5",
"~ 	c #ABC8F5",
"{ 	c #AAC7F5",
"] 	c #8CB3E6",
"^ 	c #8CB2E6",
"/ 	c #89B0E5",
"( 	c #ACC9F5",
"_ 	c #C0D5F7",
": 	c #BED5F7",
"< 	c #BDD3F7",
"[ 	c #A6C5F5",
"} 	c #A7C5EC",
"| 	c #A5C4EB",
"1 	c #A3C2EB",
"2 	c #85ACE3",
"3 	c #BDD4F7",
"4 	c #BCD3F7",
"5 	c #BAD2F7",
"6 	c #A2C3F5",
"7 	c #A1BFEA",
"8 	c #80A9E2",
"9 	c #A7C5F5",
"0 	c #BBD2F7",
"a 	c #BAD1F7",
"b 	c #B8D0F7",
"c 	c #9FC0F5",
"d 	c #88B0E5",
"e 	c #A2C0EB",
"f 	c #A0BEEA",
"g 	c #9DBBE8",
"h 	c #7BA2E1",
"i 	c #A5C4F5",
"j 	c #B8D1F7",
"k 	c #B6CFF7",
"l 	c #B4CEF7",
"m 	c #9BBEF5",
"n 	c #84ACE3",
"o 	c #9EBDE9",
"p 	c #9CBAE8",
"q 	c #98B8E6",
"r 	c #749DDD",
"s 	c #A1C1F5",
"t 	c #B4CDF7",
"u 	c #B2CCF6",
"v 	c #99BBF3",
"w 	c #7FA7E1",
"x 	c #9AB9E8",
"y 	c #97B6E6",
"z 	c #94B3E5",
"A 	c #6F96DC",
"B 	c #9DBFF5",
"C 	c #B3CDF7",
"D 	c #B1CCF6",
"E 	c #AFCBF6",
"F 	c #95B8F3",
"G 	c #79A2E0",
"H 	c #96B5E6",
"I 	c #92B2E4",
"J 	c #8FAFE3",
"K 	c #6892D9",
"L 	c #9ABCF3",
"M 	c #B0CBF6",
"N 	c #AFCAF6",
"O 	c #ADC9F6",
"P 	c #92B7F3",
"Q 	c #739DDD",
"R 	c #91B1E4",
"S 	c #8EADE3",
"T 	c #8BAAE1",
"U 	c #638DD8",
"V 	c #96BBF3",
"W 	c #92B8F3",
"X 	c #91B7F3",
"Y 	c #90B6F3",
"Z 	c #6E96DA",
"` 	c #8DACE2",
" .	c #8AA9E1",
"..	c #86A7E0",
"+.	c #5E88D5",
"@.	c #6791D9",
"#.	c #88A8E1",
"$.	c #85A5DF",
"%.	c #83A3DF",
"&.	c #5A85D4",
"*.	c #628CD6",
"=.	c #83A2DE",
"-.	c #81A1DE",
";.	c #5883D2",
">.	c #5E86D5",
"                                ",
"  . + @ # $ % & * = - ; > ,     ",
"                                ",
"    ' ) ! ~ {   ] ] ] ^ /       ",
"    ( _ : < [   ] } | 1 2       ",
"    ~ 3 4 5 6   ] | 1 7 8       ",
"    9 0 a b c   d e f g h       ",
"    i j k l m   n o p q r       ",
"    s k t u v   w x y z A       ",
"    B C D E F   G H I J K       ",
"    L M N O P   Q R S T U       ",
"    V F W X Y   Z `  ...+.      ",
"                @.#.$.%.&.      ",
"                *.$.=.-.;.      ",
"                >.&.;.;.;.      ",
"                                "};
