/* XPM */
static char * clear_xpm[] = {
"16 16 13 1",
" 	c None",
".	c #FFFFFF",
"+	c #000000",
"@	c #F1F1F1",
"#	c #FCFCFC",
"$	c #E6E6E6",
"%	c #B5B5B5",
"&	c #808080",
"*	c #AAAAAA",
"=	c #9C9C9C",
"-	c #FDFDFD",
";	c #B6B6B6",
">	c #ABABAB",
"                ",
".+++++++++++++@#",
"+.............+$",
"+.............+%",
"+..+&.........+*",
"+..+&.........+*",
"+..+&.........+*",
"+..+&.........+*",
"+..+&.........+*",
"+..+&.........+*",
"+.............+*",
"+.............+*",
"@+++++++++++++=%",
"-$;>**********;$",
"                ",
"                "};
