/* XPM */
static char * cpma48_xpm[] = {
"48 48 773 2",
"  	c None",
". 	c #030202",
"+ 	c #250C0B",
"@ 	c #35110E",
"# 	c #03020E",
"$ 	c #040211",
"% 	c #080403",
"& 	c #3C1312",
"* 	c #310E0D",
"= 	c #030000",
"- 	c #03000B",
"; 	c #0C0237",
"> 	c #0B003C",
", 	c #06020F",
"' 	c #3C1211",
") 	c #521616",
"! 	c #030200",
"~ 	c #03000C",
"{ 	c #15024F",
"] 	c #0F003E",
"^ 	c #020200",
"/ 	c #030302",
"( 	c #561615",
"_ 	c #511614",
": 	c #150350",
"< 	c #160054",
"[ 	c #06040C",
"} 	c #5C1B16",
"| 	c #5F1B15",
"1 	c #16025B",
"2 	c #150057",
"3 	c #04020E",
"4 	c #5D1A15",
"5 	c #681B16",
"6 	c #190807",
"7 	c #080416",
"8 	c #150062",
"9 	c #15005B",
"0 	c #030203",
"a 	c #4E1913",
"b 	c #661C16",
"c 	c #5C1A1A",
"d 	c #150358",
"e 	c #130061",
"f 	c #140255",
"g 	c #220C0B",
"h 	c #6F1E1C",
"i 	c #741F1F",
"j 	c #270D0B",
"k 	c #0C061D",
"l 	c #1B006E",
"m 	c #140068",
"n 	c #0D0333",
"o 	c #671E1D",
"p 	c #711D1D",
"q 	c #7B231F",
"r 	c #060302",
"s 	c #000200",
"t 	c #1F026F",
"u 	c #1D006B",
"v 	c #1B026B",
"w 	c #020202",
"x 	c #260D0C",
"y 	c #7B1F1F",
"z 	c #78221C",
"A 	c #7A201D",
"B 	c #1A0069",
"C 	c #1D0073",
"D 	c #1F0074",
"E 	c #0E0331",
"F 	c #541A18",
"G 	c #7E221C",
"H 	c #7E241F",
"I 	c #781E1C",
"J 	c #190062",
"K 	c #1D007A",
"L 	c #1D0076",
"M 	c #1E026F",
"N 	c #7C2420",
"O 	c #852424",
"P 	c #892628",
"Q 	c #87201C",
"R 	c #19006B",
"S 	c #1D007F",
"T 	c #1C007D",
"U 	c #1F0081",
"V 	c #040016",
"W 	c #0F0706",
"X 	c #8F2725",
"Y 	c #8C2627",
"Z 	c #962927",
"` 	c #A02828",
" .	c #2B2C2A",
"..	c #494848",
"+.	c #757675",
"@.	c #757575",
"#.	c #777877",
"$.	c #616261",
"%.	c #403F3F",
"&.	c #080907",
"*.	c #19027D",
"=.	c #25008E",
"-.	c #250086",
";.	c #1E0088",
">.	c #0B022A",
",.	c #330F0D",
"'.	c #96282A",
").	c #972926",
"!.	c #A12B29",
"~.	c #B32B29",
"{.	c #1A0807",
"].	c #252525",
"^.	c #8B898A",
"/.	c #BCBCBC",
"(.	c #BDBCBD",
"_.	c #BABABA",
":.	c #C1C1C1",
"<.	c #C1C0C1",
"[.	c #BEBFBE",
"}.	c #C5C3C5",
"|.	c #BDBDBD",
"1.	c #C2C2C2",
"2.	c #A3A3A3",
"3.	c #4A4A4A",
"4.	c #020400",
"5.	c #23029A",
"6.	c #280099",
"7.	c #270092",
"8.	c #24008E",
"9.	c #12043E",
"0.	c #3F1513",
"a.	c #9D2A28",
"b.	c #A12C2A",
"c.	c #AE3031",
"d.	c #BB3030",
"e.	c #81221F",
"f.	c #6A6A6A",
"g.	c #F2F2F2",
"h.	c #D8D8D8",
"i.	c #D3D3D3",
"j.	c #D5D4D5",
"k.	c #D7D8D7",
"l.	c #DEDBDE",
"m.	c #DDDCDD",
"n.	c #DCDBDC",
"o.	c #D0D0D0",
"p.	c #CDCCCD",
"q.	c #DBDADB",
"r.	c #C8C7C7",
"s.	c #0B0635",
"t.	c #2700B2",
"u.	c #2700A3",
"v.	c #26009B",
"w.	c #290099",
"x.	c #120046",
"y.	c #401511",
"z.	c #A62C2A",
"A.	c #AA2F31",
"B.	c #B93430",
"C.	c #C53636",
"D.	c #D83635",
"E.	c #A0A0A0",
"F.	c #F4F1F4",
"G.	c #E6E4E6",
"H.	c #EBEAEB",
"I.	c #F1EEF1",
"J.	c #F8F5F8",
"K.	c #FBFAFB",
"L.	c #FCFAFC",
"M.	c #F9F8F9",
"N.	c #F0EFF0",
"O.	c #E7E6E7",
"P.	c #E1DFE1",
"Q.	c #DEDDDE",
"R.	c #2904B2",
"S.	c #3100BD",
"T.	c #3000B1",
"U.	c #2800A4",
"V.	c #2800A1",
"W.	c #140054",
"X.	c #4B1916",
"Y.	c #B3322F",
"Z.	c #C23636",
"`.	c #D23B38",
" +	c #EE3C3B",
".+	c #A72B27",
"++	c #000000",
"@+	c #FEFBFE",
"#+	c #FFFFFF",
"$+	c #A19FA1",
"%+	c #A1A1A1",
"&+	c #A09FA0",
"*+	c #ACAAAC",
"=+	c #FBF9FB",
"-+	c #F7F6F7",
";+	c #7E7E7E",
">+	c #160950",
",+	c #3600E7",
"'+	c #3200C7",
")+	c #2F00BC",
"!+	c #3100B0",
"~+	c #2900A7",
"{+	c #1C0466",
"]+	c #3C1816",
"^+	c #A82F2C",
"/+	c #AD3030",
"(+	c #BC3431",
"_+	c #CC3838",
":+	c #DE3D3B",
"<+	c #EE4242",
"[+	c #FF4B4B",
"}+	c #531B19",
"|+	c #000606",
"1+	c #CFCDCF",
"2+	c #838183",
"3+	c #252425",
"4+	c #818080",
"5+	c #030600",
"6+	c #4207FF",
"7+	c #3806E7",
"8+	c #3800D7",
"9+	c #3500C7",
"0+	c #2F00B9",
"a+	c #2F00A9",
"b+	c #2900A6",
"c+	c #120738",
"d+	c #0C0808",
"e+	c #812626",
"f+	c #A32C28",
"g+	c #A62E2E",
"h+	c #B4312F",
"i+	c #D43B38",
"j+	c #E83F3F",
"k+	c #F94744",
"l+	c #FF4C4B",
"m+	c #FF5D5C",
"n+	c #5E2726",
"o+	c #060C03",
"p+	c #4F0CFF",
"q+	c #4204FF",
"r+	c #4006F4",
"s+	c #3906E1",
"t+	c #3800D1",
"u+	c #3100C0",
"v+	c #2800A3",
"w+	c #2900A2",
"x+	c #250481",
"y+	c #04040B",
"z+	c #341411",
"A+	c #8D2622",
"B+	c #902628",
"C+	c #9C2B27",
"D+	c #AB3030",
"E+	c #BA3331",
"F+	c #CB3838",
"G+	c #DF3D3C",
"H+	c #F2433F",
"I+	c #FF494A",
"J+	c #FF4F4E",
"K+	c #FF5654",
"L+	c #FF6967",
"M+	c #C75956",
"N+	c #2E1369",
"O+	c #5E09FF",
"P+	c #4E04FF",
"Q+	c #4A06FF",
"R+	c #4306FE",
"S+	c #3F06EE",
"T+	c #3702D9",
"U+	c #2F00B7",
"V+	c #2B00A7",
"W+	c #26009A",
"X+	c #27008F",
"Y+	c #1F008D",
"Z+	c #0E062A",
"`+	c #3B1614",
" @	c #82241E",
".@	c #842322",
"+@	c #912827",
"@@	c #A12C2B",
"#@	c #B03130",
"$@	c #C03534",
"%@	c #D23937",
"&@	c #E53F3F",
"*@	c #FA4645",
"=@	c #FF4D4B",
"-@	c #FF5252",
";@	c #FF5958",
">@	c #FF605F",
",@	c #FF6A69",
"'@	c #FF7270",
")@	c #D05555",
"!@	c #5A2625",
"~@	c #030700",
"{@	c #2C0E83",
"]@	c #5F11FE",
"^@	c #6003FF",
"/@	c #5304FF",
"(@	c #5206FF",
"_@	c #4C06FF",
":@	c #4806FF",
"<@	c #3F06F7",
"[@	c #3B04E1",
"}@	c #3800CE",
"|@	c #3000BD",
"1@	c #2F00AE",
"2@	c #26009F",
"3@	c #1E0084",
"4@	c #1F0082",
"5@	c #120637",
"6@	c #1E0B0B",
"7@	c #7A1F1F",
"8@	c #77221C",
"9@	c #852524",
"0@	c #A32B28",
"a@	c #B73130",
"b@	c #D03938",
"c@	c #E53E3B",
"d@	c #FB4645",
"e@	c #FF4B4A",
"f@	c #FF5552",
"g@	c #FF5C5B",
"h@	c #FF6361",
"i@	c #FF6868",
"j@	c #FF6764",
"k@	c #FF6363",
"l@	c #FF5A58",
"m@	c #FF5956",
"n@	c #280000",
"o@	c #2E0EB5",
"p@	c #480BFF",
"q@	c #4E03FF",
"r@	c #5A04FF",
"s@	c #5906FF",
"t@	c #5106FF",
"u@	c #4F06FF",
"v@	c #4A04FF",
"w@	c #4404FF",
"x@	c #4004F7",
"y@	c #3B00E4",
"z@	c #3400CE",
"A@	c #3100B9",
"B@	c #2700A6",
"C@	c #270094",
"D@	c #200085",
"E@	c #1C0078",
"F@	c #1F0078",
"G@	c #11042E",
"H@	c #000202",
"I@	c #6B1E1B",
"J@	c #6F1E1D",
"K@	c #76221C",
"L@	c #85221D",
"M@	c #9E2729",
"N@	c #742320",
"O@	c #571614",
"P@	c #5D1818",
"Q@	c #651B1A",
"R@	c #9D3433",
"S@	c #FC5351",
"T@	c #FF5F5E",
"U@	c #FF6261",
"V@	c #FF6563",
"W@	c #FF6565",
"X@	c #FF5957",
"Y@	c #FF3F3D",
"Z@	c #B82222",
"`@	c #1906B3",
" #	c #2F03FF",
".#	c #3506FF",
"+#	c #5406FF",
"@#	c #5B04FF",
"##	c #5403FF",
"$#	c #5702FF",
"%#	c #500BFF",
"&#	c #3911B2",
"*#	c #250C74",
"=#	c #16074C",
"-#	c #18094F",
";#	c #1F096C",
">#	c #27098E",
",#	c #2B00A3",
"'#	c #22008B",
")#	c #1C0079",
"!#	c #1D006F",
"~#	c #18026B",
"{#	c #030207",
"]#	c #481511",
"^#	c #651B19",
"/#	c #6D1E1E",
"(#	c #82201F",
"_#	c #651C18",
":#	c #270C0D",
"<#	c #341516",
"[#	c #C14846",
"}#	c #FF6F6A",
"|#	c #FF5D5D",
"1#	c #FF4C4D",
"2#	c #FF3837",
"3#	c #B01816",
"4#	c #0C0487",
"5#	c #2704FF",
"6#	c #3806FF",
"7#	c #4504FF",
"8#	c #5816ED",
"9#	c #250F65",
"0#	c #000300",
"a#	c #06060C",
"b#	c #14044B",
"c#	c #1F0382",
"d#	c #1E0072",
"e#	c #150066",
"f#	c #150351",
"g#	c #080402",
"h#	c #601A15",
"i#	c #611B19",
"j#	c #741D1A",
"k#	c #2F0F0D",
"l#	c #000007",
"m#	c #190467",
"n#	c #1D066C",
"o#	c #090715",
"p#	c #5E2625",
"q#	c #FF3F3E",
"r#	c #FF2423",
"s#	c #2E0000",
"t#	c #1604FF",
"u#	c #2F04FF",
"v#	c #4406FF",
"w#	c #3911A1",
"x#	c #6E2523",
"y#	c #B83131",
"z#	c #CD302E",
"A#	c #140706",
"B#	c #1E0369",
"C#	c #160068",
"D#	c #150061",
"E#	c #070219",
"F#	c #3E1312",
"G#	c #5A1914",
"H#	c #661B16",
"I#	c #0F0604",
"J#	c #0C0245",
"K#	c #2600C4",
"L#	c #3002DE",
"M#	c #4006FF",
"N#	c #190B09",
"O#	c #FF3836",
"P#	c #FF1B18",
"Q#	c #0E04EB",
"R#	c #2B04FF",
"S#	c #250E7D",
"T#	c #421615",
"U#	c #FF5351",
"V#	c #FF3C3A",
"W#	c #FF3332",
"X#	c #5E1615",
"Y#	c #16045A",
"Z#	c #14005E",
"`#	c #140048",
" $	c #541515",
".$	c #220B08",
"+$	c #080036",
"@$	c #1C00A7",
"#$	c #2802C5",
"$$	c #3404FB",
"%$	c #220970",
"&$	c #350908",
"*$	c #00021A",
"=$	c #120775",
"-$	c #842F2E",
";$	c #FF4544",
">$	c #FF3130",
",$	c #F32626",
"'$	c #440E0C",
")$	c #15005E",
"!$	c #150056",
"~$	c #000006",
"{$	c #0E0404",
"]$	c #551515",
"^$	c #461511",
"/$	c #040218",
"($	c #130097",
"_$	c #1E00B8",
":$	c #3006EA",
"<$	c #2908A6",
"[$	c #C83938",
"}$	c #FF3938",
"|$	c #FF2725",
"1$	c #E71E1B",
"2$	c #150302",
"3$	c #070318",
"4$	c #160058",
"5$	c #08001F",
"6$	c #250C09",
"7$	c #571616",
"8$	c #090303",
"9$	c #11007D",
"0$	c #1900A7",
"a$	c #2606D7",
"b$	c #3207E1",
"c$	c #373837",
"d$	c #FDFDFD",
"e$	c #848484",
"f$	c #BABAB9",
"g$	c #040404",
"h$	c #FF4642",
"i$	c #FF2F2E",
"j$	c #F81E1B",
"k$	c #C81514",
"l$	c #140347",
"m$	c #0D0233",
"n$	c #360F09",
"o$	c #471413",
"p$	c #060052",
"q$	c #150095",
"r$	c #2403C1",
"s$	c #3407FF",
"t$	c #07040F",
"u$	c #141414",
"v$	c #090B09",
"w$	c #561C1A",
"x$	c #FF3C3C",
"y$	c #FF2724",
"z$	c #E11916",
"A$	c #800D0B",
"B$	c #07001C",
"C$	c #0D003A",
"D$	c #380D07",
"E$	c #270B0B",
"F$	c #03001B",
"G$	c #0E007C",
"H$	c #1500A9",
"I$	c #2903DC",
"J$	c #2C0CC4",
"K$	c #BDBDBC",
"L$	c #FF4443",
"M$	c #FF2E2B",
"N$	c #FA1D1B",
"O$	c #C8130F",
"P$	c #110200",
"Q$	c #000003",
"R$	c #0D0044",
"S$	c #380D08",
"T$	c #140403",
"U$	c #0B0069",
"V$	c #14008C",
"W$	c #1F00BA",
"X$	c #3104F9",
"Y$	c #180855",
"Z$	c #C4C5C4",
"`$	c #BBBBBB",
" %	c #BA3433",
".%	c #FF3634",
"+%	c #FF2420",
"@%	c #D41312",
"#%	c #810D08",
"$%	c #0C023C",
"%%	c #2A0B07",
"&%	c #140604",
"*%	c #03021A",
"=%	c #0D007B",
"-%	c #16009E",
";%	c #2302C5",
">%	c #3706FD",
",%	c #160B44",
"'%	c #BEBEBE",
")%	c #6E6F6E",
"!%	c #A13230",
"~%	c #FF2928",
"{%	c #E31B19",
"]%	c #B2120D",
"^%	c #0E0202",
"/%	c #09022F",
"(%	c #160604",
"_%	c #06004A",
":%	c #110083",
"<%	c #2703C7",
"[%	c #CDCDCC",
"}%	c #6F6E6E",
"|%	c #E94845",
"1%	c #FF403F",
"2%	c #E91E1D",
"3%	c #BE1412",
"4%	c #500804",
"5%	c #080327",
"6%	c #040200",
"7%	c #1A0703",
"8%	c #0B025E",
"9%	c #13008C",
"0%	c #1C00AD",
"a%	c #2802C8",
"b%	c #3904FE",
"c%	c #18035E",
"d%	c #F7F6F6",
"e%	c #A7A6A6",
"f%	c #79221F",
"g%	c #FF4646",
"h%	c #FD3432",
"i%	c #E62522",
"j%	c #C61918",
"k%	c #6D0C08",
"l%	c #06001C",
"m%	c #180704",
"n%	c #0E0267",
"o%	c #19009D",
"p%	c #2200B1",
"q%	c #3100DC",
"r%	c #070027",
"s%	c #300E0D",
"t%	c #FF3E3C",
"u%	c #E12B2A",
"v%	c #D2201D",
"w%	c #6C110D",
"x%	c #020009",
"y%	c #030014",
"z%	c #0E0449",
"A%	c #2000B0",
"B%	c #2B00BF",
"C%	c #929290",
"D%	c #AC2927",
"E%	c #D62A27",
"F%	c #3E0B09",
"G%	c #07031F",
"H%	c #030012",
"I%	c #797979",
"J%	c #B3B2B2",
"K%	c #040303",
"L%	c #3D3C39",
"M%	c #6C6A6A",
"N%	c #FAF7F6",
"O%	c #FCFAFB",
"P%	c #FFFDFD",
"Q%	c #FFFEFF",
"R%	c #FFFEFD",
"S%	c #B2B0AE",
"T%	c #1E1F1D",
"U%	c #484A47",
"V%	c #060606",
"W%	c #777576",
"X%	c #E3E1E1",
"Y%	c #DDD9DA",
"Z%	c #E2E0DE",
"`%	c #E7E3E3",
" &	c #EAE8E8",
".&	c #EEE9E8",
"+&	c #EFEBE8",
"@&	c #EAE8E7",
"#&	c #E8E4E3",
"$&	c #F5F1F0",
"%&	c #858683",
"&&	c #2C2E2C",
"*&	c #121111",
"=&	c #565652",
"-&	c #302F2E",
";&	c #262726",
">&	c #969593",
",&	c #C5C2C2",
"'&	c #C1BEBD",
")&	c #C8C6C5",
"!&	c #CECCCA",
"~&	c #D2D0CF",
"{&	c #D6D3D3",
"]&	c #DCDAD9",
"^&	c #DAD7D6",
"/&	c #D6D4D4",
"(&	c #D5D3D2",
"_&	c #D3D0D0",
":&	c #CCCAC9",
"<&	c #D6D3D2",
"[&	c #969392",
"}&	c #070607",
"|&	c #454643",
"1&	c #363735",
"2&	c #4E4D4C",
"3&	c #646461",
"4&	c #4A4A49",
"5&	c #2E2E2C",
"6&	c #272726",
"7&	c #282827",
"8&	c #2B2C2B",
"9&	c #4C4C4A",
"0&	c #92908D",
"a&	c #A5A3A1",
"b&	c #AAA9A8",
"c&	c #B2AEAE",
"d&	c #B6B4B4",
"e&	c #BBB8B9",
"f&	c #C6C4C1",
"g&	c #CBC9C8",
"h&	c #979595",
"i&	c #CDCAC7",
"j&	c #CAC7C5",
"k&	c #C1BEBF",
"l&	c #BFBCB9",
"m&	c #BAB8B8",
"n&	c #B4B2B3",
"o&	c #B4B2B0",
"p&	c #B3B1B1",
"q&	c #575757",
"r&	c #141514",
"s&	c #0D0C0B",
"t&	c #373636",
"u&	c #686965",
"v&	c #2F312F",
"w&	c #232523",
"x&	c #595754",
"y&	c #6C6C69",
"z&	c #72716E",
"A&	c #797877",
"B&	c #82807E",
"C&	c #828380",
"D&	c #858382",
"E&	c #8D8B89",
"F&	c #959492",
"G&	c #9B9A97",
"H&	c #A2A1A0",
"I&	c #AEACAB",
"J&	c #B5B2B0",
"K&	c #7B7C7C",
"L&	c #8A8887",
"M&	c #BFBDBC",
"N&	c #B1AFAF",
"O&	c #AAA7A5",
"P&	c #A4A3A1",
"Q&	c #A09E9A",
"R&	c #999896",
"S&	c #9A9796",
"T&	c #979592",
"U&	c #888787",
"V&	c #6D6C68",
"W&	c #605F5D",
"X&	c #656462",
"Y&	c #70706D",
"Z&	c #6F6E6C",
"`&	c #5E5C5B",
" *	c #1F1F1E",
".*	c #1E1F1E",
"+*	c #494A48",
"@*	c #706F6D",
"#*	c #7B7A78",
"$*	c #83817F",
"%*	c #888786",
"&*	c #918E8C",
"**	c #898887",
"=*	c #7A7978",
"-*	c #464442",
";*	c #1F1E1D",
">*	c #7E7E7C",
",*	c #9E9B9B",
"'*	c #969594",
")*	c #8F8D8C",
"!*	c #868483",
"~*	c #807F7D",
"{*	c #7C7B79",
"]*	c #787876",
"^*	c #747371",
"/*	c #6F6D6B",
"(*	c #5C5B5A",
"_*	c #353533",
":*	c #0C0C0C",
"<*	c #1A1A19",
"[*	c #141312",
"}*	c #060806",
"|*	c #3B3A39",
"1*	c #535352",
"2*	c #696968",
"3*	c #6D6D6A",
"4*	c #666563",
"5*	c #5E5F5D",
"6*	c #4F4E4C",
"7*	c #303230",
"8*	c #0C0C0B",
"                                                                                                ",
"                                      . + @         # $                                         ",
"                                  % & * =             - ; > ,                                   ",
"                                ' ) !                     ~ { ] ^                               ",
"                            / ( _                             : < [                             ",
"                          % } |                                 1 2 3                           ",
"                          4 5 6                                 7 8 9 0                         ",
"                        a b c                                     d e f                         ",
"                      g h i j                                     k l m n                       ",
"                      o p q r                                     s t u v w                     ",
"                    x y z A                                         B C D E                     ",
"                    F G H I                                         J K L M                     ",
"                    N O P Q                                         R S T U V                   ",
"                  W X Y Z `              ...+.@.#.$.%.&.            *.=.-.;.>.                  ",
"                  ,.'.).!.~.{.    ].^./.(._.:.<.[.}.|.1.2.3.      4.5.6.7.8.9.                  ",
"                  0.a.b.c.d.e.  f.g.h.i.j.k.l.m.m.n.j.o.p.q.r.    s.t.u.v.w.x.                  ",
"                  y.z.A.B.C.D.  E.F.G.H.I.J.K.L.L.M.N.O.P.Q.K.&.  R.S.T.U.V.W.                  ",
"                  X.c.Y.Z.`. +.+++K.@+#+#+m.$+%+&+*+=+#+-+#+;+++>+,+'+)+!+~+{+                  ",
"                ]+^+/+(+_+:+<+[+}+|+1+2+              3+|.4+++5+6+7+8+9+0+a+b+c+                ",
"            d+e+f+g+h+C.i+j+k+l+m+n+                        o+p+q+r+s+t+u+T.v+w+x+y+            ",
"          z+A+B+C+D+E+F+G+H+I+J+K+L+M+                    N+O+P+Q+R+S+T+9+U+V+W+X+Y+Z+          ",
"        `+ @.@+@@@#@$@%@&@*@=@-@;@>@,@'@)@!@%       ~@{@]@^@/@(@_@:@<@[@}@|@1@2@X+3@4@5@        ",
"      6@7@8@9@+@0@a@b@c@d@e@J+f@g@h@i@j@k@l@m@n@  o@p@q@/@r@s@t@u@v@w@x@y@z@A@B@C@D@E@F@G@      ",
"    H@I@J@K@L@M@b.N@O@P@Q@R@S@T@U@V@W@X@[+Y@Z@    `@ #.#:@+#@###$#%#&#*#=#-#;#>#,#'#)#!#~#{#    ",
"    ]#^#/#(#_#:#              <#[#}#|#1#2#3#        4#5#6#7#^@8#9#0#            a#b#c#d#e#f#    ",
"  g#h#i#j#k#        l#m#n#o#      p#m@q#r#s#          t#u#v#w#s     x#y#z#A#        [ B#C#D#E#  ",
"  F#G#H#I#          J#K#L#M#3       N#O#P#            Q#R#S#      T#U#V#W#X#          s Y#Z#`#  ",
"   $4 .$            +$@$#$$$%$        &$              *$=$        -$;$>$,$'$              )$!$~$",
"{$]$^$              /$($_$:$<$                                    [$}$|$1$2$              3$4$5$",
"6$7$8$                9$0$a$b$          c$#+d$e$e$#+f$g$          h$i$j$k$                  l$m$",
"n$o$                  p$q$r$s$t$        u$#+#+#+#+#+#+v$        w$x$y$z$A$                  B$C$",
"D$E$                  F$G$H$I$J$          #+#+#+#+#+K$          L$M$N$O$P$                  Q$R$",
"S$T$                    U$V$W$X$Y$        Z$#+#+#+#+`$         %.%+%@%#%                      $%",
"%%&%                    *%=%-%;%>%,%      '%#+#+#+#+)%      !%Y@~%{%]%^%                      /%",
"(%(%                      _%:%0$<%.#>#    [%#+#+#+#+}%  H@|%1%>$2%3%4%                        5%",
"6%7%                        8%9%0%a%b%c%  d%#+#+#+#+e%  f%g%h%i%j%k%                        Q$l%",
"  m%                          n%o%p%q%r%  #+#+#+#+#+'%  s%t%u%v%w%                          x%y%",
"                                z%A%B%++C%#+#+#+#+#+#+    D%E%F%                                ",
"                                  G%H%++#+#+#+#+#+#+#+I%    s                                   ",
"                                      J%#+#+#+#+#+#+#+#+                                        ",
"    K%L%                            M%#+N%O%P%Q%Q%Q%R%#+S%                                      ",
"      T%U%V%                      W%X%Y%Z%`% &.&+&.&@&#&$&%&                          &&g$      ",
"        *&=&-&                ;&>&,&'&)&!&~&{&]&^&/&(&_&:&<&[&                    }&|&1&        ",
"            2&3&4&5&6&7&8&9&0&a&a&b&c&d&e&f&g&h&i&j&k&l&m&n&o&p&q&r&          s&t&u&v&          ",
"              w&x&y&z&A&B&C&D&E&F&G&H&I&J&K&      L&M&N&O&P&Q&R&S&T&U&V&W&X&Y&Z&`& *            ",
"                  .*+*W&@*#*$*%*&***=*-*            ;*>*H&,*'*)*!*~*{*]*^*/*(*_*                ",
"                          :*<*[*}*                      K%|*1*2*3*4*5*6*7*8*                    ",
"                                                                                                "};
