/* XPM */
static char * cpma24_xpm[] = {
"24 24 195 2",
"  	c None",
". 	c #200C07",
"+ 	c #00000B",
"@ 	c #37110D",
"# 	c #280C0B",
"$ 	c #07002B",
"% 	c #0B0034",
"& 	c #5E1C14",
"* 	c #14025F",
"= 	c #531C11",
"- 	c #48140E",
"; 	c #0E0242",
"> 	c #120057",
", 	c #932924",
"' 	c #000000",
") 	c #000200",
"! 	c #200087",
"~ 	c #080026",
"{ 	c #681F1B",
"] 	c #902A1F",
"^ 	c #200082",
"/ 	c #1B0072",
"( 	c #9A302A",
"_ 	c #A6302C",
": 	c #0D0E0D",
"< 	c #220089",
"[ 	c #220098",
"} 	c #000002",
"| 	c #130704",
"1 	c #A93330",
"2 	c #C53739",
"3 	c #646968",
"4 	c #D8D8D8",
"5 	c #D7DCD7",
"6 	c #E1E2E1",
"7 	c #DFE1DF",
"8 	c #DEE0DE",
"9 	c #BCBDBC",
"0 	c #2B00BB",
"a 	c #2B00A4",
"b 	c #BB3837",
"c 	c #CE3F3B",
"d 	c #9B1913",
"e 	c #AFC4C5",
"f 	c #FFFFFF",
"g 	c #E3E1E3",
"h 	c #E6E4E6",
"i 	c #6C7158",
"j 	c #11007A",
"k 	c #3800C6",
"l 	c #3500B5",
"m 	c #9F322B",
"n 	c #B93935",
"o 	c #D9403F",
"p 	c #FF5655",
"q 	c #480906",
"r 	c #00000D",
"s 	c #5006FF",
"t 	c #3E00D4",
"u 	c #3200BC",
"v 	c #2C029C",
"w 	c #3E1911",
"x 	c #A32F2C",
"y 	c #AE3532",
"z 	c #CF3D3B",
"A 	c #F34842",
"B 	c #FA5352",
"C 	c #FF6F69",
"D 	c #B55452",
"E 	c #3C009C",
"F 	c #6306FF",
"G 	c #4F06FB",
"H 	c #3B03EE",
"I 	c #3900C5",
"J 	c #2A00A7",
"K 	c #24009F",
"L 	c #0E0438",
"M 	c #1B0808",
"N 	c #87271F",
"O 	c #9F2E28",
"P 	c #B13535",
"Q 	c #A3302A",
"R 	c #CB403B",
"S 	c #FF6764",
"T 	c #FF6F6E",
"U 	c #FF716D",
"V 	c #FF6767",
"W 	c #96281A",
"X 	c #030269",
"Y 	c #5003FF",
"Z 	c #6004FF",
"` 	c #6102FF",
" .	c #5F04FF",
"..	c #3A0CD6",
"+.	c #240298",
"@.	c #2B07A9",
"#.	c #2E00A7",
"$.	c #1F008D",
"%.	c #0D0220",
"&.	c #75201D",
"*.	c #7A231C",
"=.	c #8D423C",
"-.	c #FF6560",
";.	c #C91C14",
">.	c #0804AA",
",.	c #4604FF",
"'.	c #4F0FB5",
").	c #1A026F",
"!.	c #18007C",
"~.	c #681E15",
"{.	c #18008C",
"].	c #4A03FF",
"^.	c #591412",
"/.	c #1E0894",
"(.	c #FF5A58",
"_.	c #C12622",
":.	c #130259",
"<.	c #0B002A",
"[.	c #3F130E",
"}.	c #070049",
"|.	c #2903E3",
"1.	c #535E5A",
"2.	c #323329",
"3.	c #FF3330",
"4.	c #750B08",
"5.	c #13004B",
"6.	c #42130C",
"7.	c #1600B3",
"8.	c #2E09C5",
"9.	c #939693",
"0.	c #7F817F",
"a.	c #EE4742",
"b.	c #FF1E16",
"c.	c #0E0000",
"d.	c #04002E",
"e.	c #2A0902",
"f.	c #08006A",
"g.	c #2900E8",
"h.	c #1D0969",
"i.	c #A73835",
"j.	c #FF302F",
"k.	c #8C0B07",
"l.	c #120400",
"m.	c #130090",
"n.	c #3100F3",
"o.	c #1A0084",
"p.	c #B2352F",
"q.	c #FF423D",
"r.	c #CC1814",
"s.	c #030013",
"t.	c #2202B3",
"u.	c #02006F",
"v.	c #A7AC9D",
"w.	c #801812",
"x.	c #D82824",
"y.	c #000008",
"z.	c #090C03",
"A.	c #F9FDF9",
"B.	c #FDFFFD",
"C.	c #F9FDFA",
"D.	c #202422",
"E.	c #1A1B16",
"F.	c #EDEEEE",
"G.	c #F4F2EF",
"H.	c #F6F8F7",
"I.	c #F4F6F5",
"J.	c #9D9E9A",
"K.	c #202220",
"L.	c #51524E",
"M.	c #5D5E5A",
"N.	c #C5C7C7",
"O.	c #C5C2BD",
"P.	c #D4D6D2",
"Q.	c #D3D4D4",
"R.	c #E4E2DC",
"S.	c #CDCDCC",
"T.	c #D5D5D6",
"U.	c #939394",
"V.	c #040804",
"W.	c #373934",
"X.	c #3A3F3A",
"Y.	c #484945",
"Z.	c #85847D",
"`.	c #9D9B98",
" +	c #A09E9B",
".+	c #A8A8A1",
"++	c #949796",
"@+	c #939690",
"#+	c #B9B7B6",
"$+	c #A9ABA4",
"%+	c #AAA9A5",
"&+	c #989792",
"*+	c #858683",
"=+	c #7B7E78",
"-+	c #1F221F",
"                    .     +                     ",
"                @ #         $ %                 ",
"              &                 *               ",
"            = -                 ; >             ",
"            , '                 ) ! ~           ",
"          { ]                     ^ /           ",
"          ( _       :     '       < [ }         ",
"        | 1 2   3 4 5 6 7 8 9     0 a           ",
"          b c d e f f g h f f i j k l           ",
"        m n o p q             r s t u v         ",
"    w x y z A B C D         E F G H I J K L     ",
"  M N O P Q R S T U V W X Y Z `  ...+.@.#.$.%.  ",
"  &.*.          =.-.;.    >.,.'.          ).!.  ",
"  ~.      {.].    ^.        /.    (._.      :.<.",
"[.        }.|.      1.    2.      3.4.        5.",
"6.        r 7.8.    9.f f 0.    a.b.c.        d.",
"e.          f.g.h.    f f     i.j.k.            ",
"l.            m.n.o.  f f   p.q.r.            s.",
"                t.u.v.f f   w.x.              y.",
"                  z.f A.B.C.                    ",
"  D.E.            F.G.H.I.f J.                  ",
"    K.L.      M.N.O.P.Q.R.S.T.U.V.      W.X.    ",
"        Y.Z.`. +.+++      @+#+$+%+&+*+=+-+      ",
"                                                "};
