/* XPM */
static char * cpma16_xpm[] = {
"16 16 85 1",
" 	c None",
".	c #200803",
"+	c #030020",
"@	c #571B12",
"#	c #120057",
"$	c #892C1D",
"%	c #1A0282",
"&	c #3B120F",
"*	c #5C1D15",
"=	c #160055",
"-	c #11003B",
";	c #7D2824",
">	c #681F1D",
",	c #3E3F3E",
"'	c #292826",
")	c #180053",
"!	c #200287",
"~	c #96342B",
"{	c #E83C3A",
"]	c #748983",
"^	c #FFFFFF",
"/	c #4D5B28",
"(	c #2E00D1",
"_	c #2F029E",
":	c #64231E",
"<	c #C7403C",
"[	c #F44E4A",
"}	c #C4423D",
"|	c #3A00BE",
"1	c #4702EF",
"2	c #3700C2",
"3	c #1B0265",
"4	c #76291C",
"5	c #C43C34",
"6	c #BC3C34",
"7	c #FF5B4C",
"8	c #FF7E7A",
"9	c #FF8F8A",
"0	c #9D341E",
"a	c #7102FF",
"b	c #6E00FF",
"c	c #4B09FF",
"d	c #2F00B6",
"e	c #3202BF",
"f	c #1C007D",
"g	c #74231C",
"h	c #FF594F",
"i	c #3A09FF",
"j	c #582600",
"k	c #19006D",
"l	c #44160F",
"m	c #03003A",
"n	c #4709FF",
"o	c #505652",
"p	c #FF5A54",
"q	c #600904",
"r	c #0D0049",
"s	c #270902",
"t	c #2200EB",
"u	c #FF2F26",
"v	c #0D0200",
"w	c #000037",
"x	c #3B03FF",
"y	c #D8E5DD",
"z	c #FF524C",
"A	c #470000",
"B	c #030013",
"C	c #090060",
"D	c #11063C",
"E	c #711311",
"F	c #1E231B",
"G	c #D0D4CC",
"H	c #AAB1AC",
"I	c #4A4B45",
"J	c #CACECB",
"K	c #E2E5E0",
"L	c #878A87",
"M	c #CDCCC5",
"N	c #E2E5E1",
"O	c #91928B",
"P	c #363634",
"Q	c #30302A",
"R	c #4E5349",
"S	c #151916",
"T	c #36393A",
"      .  +      ",
"     @    #     ",
"    $      %    ",
"   &*      =-   ",
"   ;> ,  ' )!   ",
"   ~{]^^^^/(_   ",
"  :<[}    |123  ",
" 4567890 abcdef ",
" g    h  i j  k ",
"l  mn  o   pq  r",
"s   t  ^^  u    ",
"v   wx ^y zA   B",
"     CD^^ E     ",
" F    G^^H      ",
"  I  JKLMNOPQR  ",
"   S        T   "};
