/* XPM */
static char * elements_collection_marker_xpm[] = {
"16 16 2 1",
" 	c None",
".	c #000000",
"       .........",
"       .........",
"       .........",
"       .........",
"       .........",
"       .........",
"       .........",
"       .........",
"       .........",
"       .........",
"       .........",
"       .........",
"       .........",
"       .........",
"       .........",
"       ........."};
