/* XPM */
static char * elements_collection_xpm[] = {
"16 16 26 1",
" 	g None",
".	g #212121",
"+	g #1F1F1F",
"@	g #1C1C1C",
"#	g #171717",
"$	g #6A6A6A",
"%	g #8A8A8A",
"&	g #868686",
"*	g #636363",
"=	g #0A0A0A",
"-	g #1E1E1E",
";	g #676767",
">	g #5D5D5D",
",	g #818181",
"'	g #030303",
")	g #191919",
"!	g #888888",
"~	g #626262",
"{	g #565656",
"]	g #7E7E7E",
"^	g #000000",
"/	g #121212",
"(	g #606060",
"_	g #828282",
":	g #575757",
"<	g #060606",
"                ",
"                ",
"                ",
"                ",
"                ",
"      .+@#      ",
"     .$%&*=     ",
"     -%;>,'     ",
"     )!~{]^     ",
"     /(_]:^     ",
"      <^^^      ",
"                ",
"                ",
"                ",
"                ",
"                "};
