/* XPM */
static char * element_enabled_xpm[] = {
"16 16 66 1",
" 	c None",
".	c #57A24E",
"+	c #529D4A",
"@	c #56A14D",
"#	c #6DB363",
"$	c #69AF5F",
"%	c #55A04C",
"&	c #6CB262",
"*	c #8FD182",
"=	c #85C87A",
"-	c #60A657",
";	c #549F4B",
">	c #6AB060",
",	c #8DCF81",
"'	c #8BCF7F",
")	c #61A758",
"!	c #408539",
"~	c #539E4B",
"{	c #8ACE7F",
"]	c #89CE7E",
"^	c #3D8237",
"/	c #66B65C",
"(	c #79C06D",
"_	c #68AE5E",
":	c #89CD7D",
"<	c #87CD7C",
"[	c #5FA556",
"}	c #3C8136",
"|	c #66B55B",
"1	c #86C979",
"2	c #8DCE80",
"3	c #5AA651",
"4	c #519C49",
"5	c #67AD5C",
"6	c #86CC7C",
"7	c #85CB79",
"8	c #5DA454",
"9	c #3B8035",
"0	c #63B059",
"a	c #76BD6B",
"b	c #90D284",
"c	c #85C97A",
"d	c #6AB260",
"e	c #6DB463",
"f	c #83C978",
"g	c #82CB78",
"h	c #5CA353",
"i	c #3A7F34",
"j	c #6DB563",
"k	c #87CC7B",
"l	c #81CA76",
"m	c #81C976",
"n	c #5AA252",
"o	c #3A7E34",
"p	c #519A49",
"q	c #64AC5B",
"r	c #82CA77",
"s	c #7EC874",
"t	c #59A051",
"u	c #397D33",
"v	c #478E40",
"w	c #5CA354",
"x	c #579F4F",
"y	c #387C32",
"z	c #3D8337",
"A	c #377B31",
"                ",
"                ",
"            .+  ",
"           @#$  ",
"          %&*=- ",
"         ;>,')! ",
"        ~${]-^  ",
"  /(   +_:<[}   ",
" |123 456789    ",
" 0abcdefghi     ",
"  3j]klmno      ",
"   pqrstu       ",
"    vwxy        ",
"     zA         ",
"                ",
"                "};
