/* XPM */
static char * prefs_display_xpm[] = {
"16 16 101 2",
"  	c None",
". 	c #F44548",
"+ 	c #F44347",
"@ 	c #FC9997",
"# 	c #F2393E",
"$ 	c #F33D42",
"% 	c #F2383D",
"& 	c #F23C41",
"* 	c #F1373C",
"= 	c #447DCE",
"- 	c #E68138",
"; 	c #D8A558",
"> 	c #DBB185",
", 	c #D09D46",
"' 	c #FB6B69",
") 	c #FB6765",
"! 	c #FA6362",
"~ 	c #437CCD",
"{ 	c #9CB1D0",
"] 	c #709FBD",
"^ 	c #918A74",
"/ 	c #E7BE77",
"( 	c #F0D2B4",
"_ 	c #FFF3E5",
": 	c #EFD2AC",
"< 	c #C18A4C",
"[ 	c #FB6665",
"} 	c #FEB5B2",
"| 	c #F95D5D",
"1 	c #4179C9",
"2 	c #3F76C5",
"3 	c #96936D",
"4 	c #EED27D",
"5 	c #F9E3B2",
"6 	c #E7C08B",
"7 	c #F6D3AE",
"8 	c #FCE0C4",
"9 	c #CF9D68",
"0 	c #F96160",
"a 	c #F95C5C",
"b 	c #F85758",
"c 	c #F75254",
"d 	c #F64D4F",
"e 	c #A85E82",
"f 	c #4277C6",
"g 	c #EED37C",
"h 	c #FDF6C4",
"i 	c #F6DD6C",
"j 	c #EDCA6D",
"k 	c #D7A363",
"l 	c #C79762",
"m 	c #5B6E8D",
"n 	c #8F6493",
"o 	c #CC4D62",
"p 	c #F03D43",
"q 	c #EA5E33",
"r 	c #EED379",
"s 	c #FDF7C7",
"t 	c #F5DC5F",
"u 	c #F7E25B",
"v 	c #F2D67A",
"w 	c #DF9940",
"x 	c #417ACA",
"y 	c #3F77C6",
"z 	c #E7CB77",
"A 	c #F5DC5E",
"B 	c #F7E15A",
"C 	c #F1D47B",
"D 	c #DC9542",
"E 	c #437CCC",
"F 	c #D6B873",
"G 	c #FDF6C2",
"H 	c #F7DF63",
"I 	c #F8E25D",
"J 	c #F0D379",
"K 	c #DB9543",
"L 	c #427BCC",
"M 	c #93ACD1",
"N 	c #3E76C4",
"O 	c #D5B67A",
"P 	c #D1B790",
"Q 	c #E4C955",
"R 	c #F5DF5B",
"S 	c #EDD078",
"T 	c #DA9441",
"U 	c #3E75C3",
"V 	c #AA8943",
"W 	c #FFF2E0",
"X 	c #D89A54",
"Y 	c #BE7A1A",
"Z 	c #C59849",
"` 	c #C18234",
" .	c #83652B",
"..	c #F9C794",
"+.	c #F9C991",
"@.	c #C98541",
"#.	c #AA641C",
"$.	c #553D11",
"%.	c #875F28",
"&.	c #BD8849",
"*.	c #BC8D42",
"                                ",
"                            .   ",
"                          + @ # ",
"                          $ %   ",
"                        & *     ",
"                =     - ; > ,   ",
"' ) !         ~ { ] ^ / ( _ : < ",
"[ } |         1 2 3 4 5 6 7 8 9 ",
"0 a b c d e f     g h i j k l m ",
"        n o p q r s t u v w     ",
"      x y     z s A B C D       ",
"  E 1       F G H I J K         ",
"L M N     O P Q R S T           ",
"  U     V W X Y Z `             ",
"         ...+.@.#.              ",
"        $.%.&.*.                "};
