/* XPM */
static char * prefs_advanced_xpm[] = {
"16 16 103 2",
"  	c None",
". 	c #E3B044",
"+ 	c #FCF8DE",
"@ 	c #FCF5CE",
"# 	c #F9EB9E",
"$ 	c #FBF2BE",
"% 	c #FFFFFE",
"& 	c #DFAB42",
"* 	c #F8E78D",
"= 	c #F9ECA1",
"- 	c #FFFFFF",
"; 	c #DFA139",
"> 	c #C89539",
", 	c #F7E47E",
"' 	c #F8E994",
") 	c #F8E9BC",
"! 	c #E3AC42",
"~ 	c #FEFCEE",
"{ 	c #DD9832",
"] 	c #F7E581",
"^ 	c #FBF1BC",
"/ 	c #F3DA8B",
"( 	c #F5DD49",
"_ 	c #FDF8C1",
": 	c #DA9030",
"< 	c #FCF7D5",
"[ 	c #F8E789",
"} 	c #F7E582",
"| 	c #F2D647",
"1 	c #F0CE38",
"2 	c #FCF5AE",
"3 	c #D67C29",
"4 	c #EAC46F",
"5 	c #F7E580",
"6 	c #F1D13D",
"7 	c #F5DB5D",
"8 	c #F6DF69",
"9 	c #F3D750",
"0 	c #EFCD34",
"a 	c #FBEF85",
"b 	c #D67F29",
"c 	c #BA8634",
"d 	c #E3B245",
"e 	c #EAC576",
"f 	c #FAEEAC",
"g 	c #F2D639",
"h 	c #F5DB4D",
"i 	c #F7E465",
"j 	c #F2CE3C",
"k 	c #EFC932",
"l 	c #D7812B",
"m 	c #BB8835",
"n 	c #FEFCF1",
"o 	c #FBF1BB",
"p 	c #F6E47B",
"q 	c #F0D228",
"r 	c #F5D437",
"s 	c #F6E083",
"t 	c #E3A93E",
"u 	c #FCF3A0",
"v 	c #FCF5A9",
"w 	c #D7822B",
"x 	c #BF8B35",
"y 	c #F9EAAB",
"z 	c #F3D84E",
"A 	c #EFC92B",
"B 	c #F3D63D",
"C 	c #F7E18A",
"D 	c #CA8A32",
"E 	c #B88333",
"F 	c #D67D29",
"G 	c #D8852C",
"H 	c #C18E36",
"I 	c #FEFCF0",
"J 	c #FAEEB0",
"K 	c #F4D843",
"L 	c #EEC828",
"M 	c #F4D741",
"N 	c #F7E289",
"O 	c #CB8B32",
"P 	c #B28838",
"Q 	c #FAEFBB",
"R 	c #F1D139",
"S 	c #EEC528",
"T 	c #F6DC4E",
"U 	c #F7E285",
"V 	c #CA8B32",
"W 	c #B58B39",
"X 	c #FBF4C6",
"Y 	c #F1D643",
"Z 	c #F5DB48",
"` 	c #F5E182",
" .	c #C88831",
"..	c #B78D39",
"+.	c #E1AC42",
"@.	c #F7EBC4",
"#.	c #F6E17F",
"$.	c #F7E69F",
"%.	c #C98A32",
"&.	c #BA903A",
"*.	c #D19636",
"=.	c #CC9033",
"-.	c #C2953B",
"                . . . .         ",
"              . . + + . .       ",
"            . . @ # $ % . &     ",
"          . . @ * = . . - ; >   ",
"          . + * , ' ) . ! ~ { > ",
"          . $ , , ] ' ^ / ( _ : ",
"          . < [ , , , } | 1 2 3 ",
"          . 4 5 6 7 8 9 0 a b c ",
"    . . d e f g h i j k a l m   ",
"    . n o p q r s t u v w x     ",
". . . y z A B C D E F G H       ",
". I J K L M N O P               ",
". Q R S T U V W                 ",
". X Y Z `  ...                  ",
"+.@.#.$.%.&.                    ",
"  *.=.O -.                      "};
