/* XPM */
static char * q4max16_xpm[] = {
"16 16 30 1",
" 	c None",
".	c #CCCCCC",
"+	c #C5C4C5",
"@	c #BEBDBD",
"#	c #B2B2B2",
"$	c #B8B7B8",
"%	c #939393",
"&	c #818181",
"*	c #8C8C8C",
"=	c #7D7D7D",
"-	c #343434",
";	c #323232",
">	c #D3D3D3",
",	c #E0DFE0",
"'	c #E5E5E5",
")	c #FFFFFF",
"!	c #464646",
"~	c #494949",
"{	c #9D9D9D",
"]	c #5E5D5D",
"^	c #3E3E3E",
"/	c #6D6C6D",
"(	c #F6F6F6",
"_	c #DDDDDD",
":	c #908F8F",
"<	c #545353",
"[	c #EFEEEE",
"}	c #777777",
"|	c #666565",
"1	c #605F60",
"                ",
"                ",
" .++++@@@#####$ ",
" %&*&*=-----;-- ",
" >,')))%-!+>&--*",
" ~--{)))]#).^--*",
" ~--^.))'/'~---*",
" ~---]())@!----*",
" ~---~*)))&----*",
" ~--^_:+))(<---*",
" ~--#)>~[))_}|/*",
" ~-|@@<-}((((((:",
" /<<<<<<<]1111|*",
" *||||||||||||| ",
"                ",
"                "};
