/* XPM */
static char * q4max32_xpm[] = {
"32 32 45 1",
" 	c None",
".	c #ADADAD",
"+	c #999899",
"@	c #989798",
"#	c #A0A0A0",
"$	c #C6C5C5",
"%	c #807E7F",
"&	c #444444",
"*	c #414141",
"=	c #3C3C3C",
"-	c #323232",
";	c #8D8D8D",
">	c #B8B8B8",
",	c #D0D0D0",
"'	c #2F302F",
")	c #2F2F2F",
"!	c #797879",
"~	c #D8D8D8",
"{	c #FEFEFE",
"]	c #A7A7A7",
"^	c #898989",
"/	c #626061",
"(	c #B6B5B5",
"_	c #C0C0C0",
":	c #C8C7C8",
"<	c #F6F6F6",
"[	c #EEEEEE",
"}	c #717071",
"|	c #F1F1F1",
"1	c #383737",
"2	c #787777",
"3	c #393939",
"4	c #5A5959",
"5	c #E4E3E3",
"6	c #494949",
"7	c #B2B2B2",
"8	c #555555",
"9	c #D5D5D5",
"0	c #5E5E5E",
"a	c #959595",
"b	c #A09F9F",
"c	c #E9E9E9",
"d	c #818181",
"e	c #F9F9F9",
"f	c #696969",
"                                ",
"                                ",
"                                ",
"                                ",
"                                ",
"  .+++@+@++@@++++++++++++++++#  ",
" $%&&&*&*&**&=---------------&; ",
" $>,,,,,,,,,,#&--=----')----=-! ",
" >~{{{{{{{{{{{]=--==^#..#/-=--! ",
" $(_$__:<{{{{{[^)--}|{{{(&---12 ",
" >/--3--;|{{{{{[4'/5{{{~6--=--! ",
" $/----3*({{{{{{(&;|{{5}--=--=2 ",
" _/-1-3-36~{{{{{{#&7{{^--=----! ",
" >/-1-3---^|{{{{{|}85>=-=--=-=} ",
" >/-3-3-3-=+{{{{{{90/8----=---! ",
" >/--3-3-3-&~{{{{{{>=--=-=---12 ",
" >/-1--3-3-=}5{{{{{{;-=-----=-! ",
" >/--=-3--&;&a{{{{{{~}---=-=--! ",
" >/-1--3--a|b&${{{{{{~6-=----=} ",
" >/--33--0[{c}}5{{{{{{+=---=--! ",
" >/-1---8,{{{9=de{{{{{|a===-=12 ",
" >/--=--(e{{|;-=${{{{{{|.#+#+b% ",
" (/-1-=^|e||+=--09{{{{{{{{{{{{; ",
" (/--1&!;;;^*-11125||||||||||[; ",
" (}----''')'-----'&66666666668% ",
"  +2}}}}}}}}}}}}}}}}}}}}}}}}}^! ",
"  ^}}}f}}f}}f}}f}}f}}f}}f}}f}/0 ",
"    }}}}}}}}}}}}}}}}}}}}}}}}}}  ",
"                                ",
"                                ",
"                                ",
"                                "};
