/* XPM */
static char * q4max48_xpm[] = {
"48 48 50 1",
" 	c None",
".	c #B8B7B8",
"+	c #BDBDBD",
"@	c #B1B0B1",
"#	c #B8B6B7",
"$	c #A9A8A8",
"%	c #A2A1A1",
"&	c #828282",
"*	c #898889",
"=	c #888788",
"-	c #A8A7A8",
";	c #9E9D9E",
">	c #393939",
",	c #272727",
"'	c #2E2E2E",
")	c #272828",
"!	c #343434",
"~	c #313131",
"{	c #5A5959",
"]	c #B1AFB0",
"^	c #929091",
"/	c #787878",
"(	c #7C7A7B",
"_	c #7E7E7E",
":	c #484747",
"<	c #908E8F",
"[	c #C9C8C9",
"}	c #F6F6F6",
"|	c #767676",
"1	c #A6A5A5",
"2	c #CCCBCC",
"3	c #FEFEFE",
"4	c #494949",
"5	c #525252",
"6	c #414141",
"7	c #E8E8E8",
"8	c #D1D0D1",
"9	c #E5E4E4",
"0	c #656565",
"a	c #6D6D6D",
"b	c #616161",
"c	c #DDDDDD",
"d	c #5E5D5D",
"e	c #D8D7D7",
"f	c #F1F1F1",
"g	c #696969",
"h	c #C2C2C2",
"i	c #E8E7E8",
"j	c #E8E7E7",
"k	c #989697",
"                                                ",
"                                                ",
"                                                ",
"                                                ",
"                                                ",
"                                                ",
"                                                ",
"    .+@+..+#.+#.+#.##+#.#################..#@   ",
"   $%&**&=&==&==&===*=&==*==*=*=*=*=*=*=*=*=-$  ",
"  $;>,')',',,',,',,,''!!'!~~!~!~!~!~!~!~!~!'{-  ",
"  ]^//(//_//_//_//_/:'!!!!!>!!!!!!!!!!!!!!!!!<  ",
"  -[}}}}}}}}}}}}}}}}[{'!!!!!!!''''''''!!!!!!!<| ",
"  1233333333333333333+:'!!!!!!4_&&&&&&{!!!!!!<| ",
"  -[333333333333333333^!!!!!!52}33333-6!!!!!!<| ",
"  $11%1%1%%@73333333337/'!!~>@333333[:'!!!!!!<| ",
"  ]('!!!!!!!&733333333385!!!=33333390'!!!!!!!<| ",
"  ]_'!!!!!!!!13333333333$>'a933333}&'!!!!!!!!<| ",
"  ]_'!!!!!>!!42333333333}&'bc333331>!!!!!!!!!<| ",
"  ]('>!>!>!!!'a733333333390'_}333[4'!!!!!!!!!<| ",
"  ]_'!!!!!!!>!!^3333333333[:!-33c0'!!!!!!!!!!<| ",
"  ]_'!!>!>!>!!!:+33333333331':2}&'!!!!!!!!!!!<| ",
"  ]_'!>!!!!!!!!'d9333333333}_'a;>!!!!!!!!!!!!<| ",
"  ]('!!!!>!>!!>!!=}333333333c{!:~!!!!!!!!!!!!</ ",
"  ]_'!>!>!!!!!!!!>@3333333333+>'!!!!!!!!!!!!!</ ",
"  ]_'!!!!!!>!>!!!)5e3333333333^!!!!!!!!!!!!!>=_ ",
"  ]_'!>!>!>!!!!!>{'_f3333333337/'!!!!!!!!!!!!=_ ",
"  ]('!!!!!!!!!!~/[4!1333333333385!!!!!!!!!!!!</ ",
"  ]_'!!!>!>!!!~583$!423333333333$>!!!!!!!!!!>=_ ",
"  ]_'!!>!!!!!!>@33}&'a7333333333}*'!!!!!!!!!!=_ ",
"  ]_'!!!!!!!!!^}3339{!^33333333339g'!!!!!!!!!</ ",
"  ]('!!>!!!!'a733333[66h333333333324''''''''!=/ ",
"  ]_'!!!!!!!583333331>'093333333333+0::::::::=_ ",
"  ]_'!!>!!!>$333333[4!!!^333333333339222222221/ ",
"  ]_'!!!!!!^33333390'!>!>+3333333333333333333]/ ",
"  ]('!!!!!/877ij78&!!!!!'{c333333333333333333@/ ",
"  ]_'!!!!>{0{0{0{4!!!!!!!!a877iiiiiiiiiiii777$_ ",
"  ]_'!!!!!!''''''!!!!!!!!!!:{{bb{bb{bb{bb{{{b^/ ",
"  1%4!>!!>!!>!!>!!>!!>!!>!!!!'!''!''!''!''!'51/ ",
"   $1^^^k^^k^^k^^k^^k^^k^^k^^k^^k^^k^^k^^k^^-</ ",
"   =&==<==<==<==<==<==<==<==<==<==<==<==<==^/:/ ",
"    /54:::::::::::::::::::::::::::::::::::::4{  ",
"       _____________________________________    ",
"                                                ",
"                                                ",
"                                                ",
"                                                ",
"                                                ",
"                                                "};
