/* XPM */
static char * superhudeditor_xpm[] = {
"32 32 307 2",
"  	c None",
". 	c #000000",
"+ 	c #2C0E0B",
"@ 	c #120503",
"# 	c #020014",
"$ 	c #07002B",
"% 	c #494949",
"& 	c #D8D8D8",
"* 	c #FCFCFC",
"= 	c #F4F4F4",
"- 	c #D3D3D3",
"; 	c #270A09",
"> 	c #441310",
", 	c #0E003F",
"' 	c #080027",
") 	c #E6E6E6",
"! 	c #FFFFFF",
"~ 	c #303030",
"{ 	c #151515",
"] 	c #969696",
"^ 	c #240A07",
"/ 	c #49150F",
"( 	c #0F004A",
"_ 	c #070124",
": 	c #F0F0F0",
"< 	c #3C3C3C",
"[ 	c #FDFDFD",
"} 	c #F3F3F3",
"| 	c #515151",
"1 	c #2F2F2F",
"2 	c #CCCCCC",
"3 	c #FAFAFB",
"4 	c #D4D3DA",
"5 	c #313131",
"6 	c #585858",
"7 	c #E7E7E7",
"8 	c #E1E1E1",
"9 	c #474747",
"0 	c #D5D5D5",
"a 	c #D0D0D0",
"b 	c #473F69",
"c 	c #CFCFCF",
"d 	c #555555",
"e 	c #010101",
"f 	c #4D4D4D",
"g 	c #F1F1F1",
"h 	c #451512",
"i 	c #060606",
"j 	c #F8F8F8",
"k 	c #FBFBFB",
"l 	c #030303",
"m 	c #9D9D9D",
"n 	c #1A1A1A",
"o 	c #292929",
"p 	c #E9E9E9",
"q 	c #5B1A15",
"r 	c #F8F4F4",
"s 	c #3B3B3B",
"t 	c #454545",
"u 	c #CECECE",
"v 	c #3F3F3F",
"w 	c #170065",
"x 	c #16005D",
"y 	c #BEBEBE",
"z 	c #EFEFEF",
"A 	c #DEDEDE",
"B 	c #695959",
"C 	c #722420",
"D 	c #BE9494",
"E 	c #F9F9F9",
"F 	c #2B2B2B",
"G 	c #C5C5C5",
"H 	c #FAFAFA",
"I 	c #080034",
"J 	c #3D110E",
"K 	c #78241F",
"L 	c #8C2625",
"M 	c #2F0D08",
"N 	c #595959",
"O 	c #707470",
"P 	c #888B88",
"Q 	c #80807E",
"R 	c #6A6A69",
"S 	c #343334",
"T 	c #06021E",
"U 	c #220080",
"V 	c #1D0075",
"W 	c #120346",
"X 	c #501B17",
"Y 	c #872827",
"Z 	c #912D2D",
"` 	c #962620",
" .	c #C0C0C0",
"..	c #B6B6B6",
"+.	c #B1B2B1",
"@.	c #BDBEBD",
"#.	c #B5B5B5",
"$.	c #ACAEAC",
"%.	c #BBBCBB",
"&.	c #8D8D8A",
"*.	c #170369",
"=.	c #22008F",
"-.	c #220082",
";.	c #170057",
">.	c #531D17",
",.	c #8D2A28",
"'.	c #9A2E2B",
").	c #BE3532",
"!.	c #2E0A05",
"~.	c #9CA6A6",
"{.	c #C8C8C8",
"].	c #BBBBBB",
"^.	c #A3A2A3",
"/.	c #A4A2A4",
"(.	c #5F625A",
"_.	c #2E00B6",
":.	c #190361",
"<.	c #3D1712",
"[.	c #A63232",
"}.	c #BB3836",
"|.	c #BA3D3D",
"1.	c #242824",
"2.	c #5A5B55",
"3.	c #3305B0",
"4.	c #3503B6",
"5.	c #28008F",
"6.	c #12033D",
"7.	c #661E1D",
"8.	c #812521",
"9.	c #AF342F",
"0.	c #C23A38",
"a.	c #C84642",
"b.	c #3E0AAD",
"c.	c #4004C8",
"d.	c #3504BF",
"e.	c #240083",
"f.	c #200081",
"g.	c #150164",
"h.	c #150706",
"i.	c #672016",
"j.	c #70201E",
"k.	c #7E2620",
"l.	c #C43B38",
"m.	c #C5403D",
"n.	c #C34848",
"o.	c #C85E5C",
"p.	c #5803C8",
"q.	c #8356D9",
"r.	c #F6F4FC",
"s.	c #2A0096",
"t.	c #1C0079",
"u.	c #1B006E",
"v.	c #160066",
"w.	c #080216",
"x.	c #551915",
"y.	c #5E1D16",
"z.	c #78201D",
"A.	c #912928",
"B.	c #C54948",
"C.	c #4604C3",
"D.	c #E2D7F6",
"E.	c #784DD7",
"F.	c #1F076C",
"G.	c #220489",
"H.	c #24007F",
"I.	c #150064",
"J.	c #180159",
"K.	c #340E0A",
"L.	c #5B1919",
"M.	c #611B15",
"N.	c #280E0B",
"O.	c #270F0B",
"P.	c #C8322C",
"Q.	c #3503C8",
"R.	c #FAF8FC",
"S.	c #040314",
"T.	c #14015B",
"U.	c #13005E",
"V.	c #0B003A",
"W.	c #46150E",
"X.	c #4D1510",
"Y.	c #0B0302",
"Z.	c #2E02A8",
"`.	c #0B002A",
" +	c #C82824",
".+	c #2D09AD",
"++	c #D7D7D7",
"@+	c #7C5A57",
"#+	c #000100",
"$+	c #0E0249",
"%+	c #0F004D",
"&+	c #531913",
"*+	c #2700B5",
"=+	c #290998",
"-+	c #838383",
";+	c #545454",
">+	c #0E004C",
",+	c #060019",
"'+	c #270D09",
")+	c #2B0A09",
"!+	c #0A004B",
"~+	c #1B009B",
"{+	c #2D06BC",
"]+	c #A0A2A0",
"^+	c #565856",
"/+	c #585A58",
"(+	c #828382",
"_+	c #C83D3B",
":+	c #C8201D",
"<+	c #7B0E0A",
"[+	c #040019",
"}+	c #0B0030",
"|+	c #320E09",
"1+	c #00001C",
"2+	c #0F007F",
"3+	c #2A01C8",
"4+	c #040613",
"5+	c #431B18",
"6+	c #C82F2B",
"7+	c #C3160F",
"8+	c #280201",
"9+	c #04002B",
"0+	c #2C0A04",
"a+	c #0A006F",
"b+	c #160096",
"c+	c #2808A0",
"d+	c #C6C8C6",
"e+	c #B4B5B4",
"f+	c #B73531",
"g+	c #C81D1B",
"h+	c #9D0E0A",
"i+	c #050028",
"j+	c #1B0600",
"k+	c #000020",
"l+	c #0A006D",
"m+	c #2100AE",
"n+	c #7A7D7A",
"o+	c #BD3A37",
"p+	c #C82827",
"q+	c #A2100E",
"r+	c #1C0200",
"s+	c #090100",
"t+	c #060041",
"u+	c #140083",
"v+	c #C3C6C3",
"w+	c #B03935",
"x+	c #BA1C1C",
"y+	c #4E0904",
"z+	c #010013",
"A+	c #C4C8C4",
"B+	c #B4211F",
"C+	c #733E37",
"D+	c #D1D1D1",
"E+	c #D2D2D2",
"F+	c #333333",
"G+	c #000009",
"H+	c #464646",
"I+	c #787B74",
"J+	c #C3C5C3",
"K+	c #2B0807",
"L+	c #BABAB5",
"M+	c #BCBDBD",
"N+	c #767975",
"O+	c #0A0E0A",
"P+	c #989A98",
"Q+	c #AFAEA9",
"R+	c #D4D4D4",
"S+	c #6E6E6F",
"T+	c #363636",
"U+	c #202420",
"V+	c #4C4C49",
"W+	c #545753",
"X+	c #575750",
"Y+	c #5F615D",
"Z+	c #737372",
"`+	c #818282",
" @	c #81827E",
".@	c #8E8F8D",
"+@	c #A0A3A1",
"@@	c #666966",
"#@	c #4C4C48",
"$@	c #A3A39F",
"%@	c #95938F",
"&@	c #8A8989",
"*@	c #8D8C88",
"=@	c #7E7D79",
"-@	c #575A57",
";@	c #454644",
">@	c #3A3936",
",@	c #464641",
"'@	c #4C504C",
")@	c #3F423D",
"!@	c #151715",
"~@	c #373535",
"{@	c #484645",
"]@	c #51524E",
"^@	c #565351",
"/@	c #53534E",
"(@	c #3A3B3A",
"_@	c #505350",
":@	c #676667",
"<@	c #6C6E6C",
"[@	c #6C706D",
"}@	c #696865",
"|@	c #646561",
"1@	c #505351",
"2@	c #3E403E",
". . . . . . . . . . . . . . . . . . . . . . . . . . . . . . . . ",
". . . . . . . . . . . . + @ . . . . # $ . . . . . . . . . . . . ",
". . % & * = - . . . ; > . . . . . . . . , ' . . . . . . . . . . ",
". . ) ! ~ { ] . . ^ / . . . . . . . . . . ( _ . . . . . . . . . ",
". . : ! < . . . ! [ . ! ! . ! ! ! } | . 1 2 3 4 5 . ! ! ! ! . . ",
". . 6 7 ! 8 6 . ! * . ! ! . ! ! 9 ! 0 . a ! b ! c . ! ! d e . . ",
". . . e f ! g h ! * e ! ! . ! ! i ! j . k ! ! ! [ . ! ! l . . . ",
". . m n o ! p q r ! s ! ! . ! ! t ! 0 . u ! v w x . ! ! . . . . ",
". . y z [ A B C D E ! ! ! . ! ! ! = | . F G H ! ! I ! ! . . . . ",
". . . . . . J K L M . . N O ! ! P Q R S . . T U V W . . . . . . ",
". . . . . . X Y Z ` .  ...+.! ! @.#.$.%.&.. *.=.-.;.. . . . . . ",
". . . . . . >.,.'.).!.~.{.{.].^./.{.{.{.(.. _.! ! :.. . . . . . ",
". . . . . <.! ! [.}.|.! ! . . . . . 1.2.. 3.4.! ! 5.6.. . . . . ",
". . . . 7.8.! ! 9.0.a.! ! . . . . . . . b.c.d.! ! e.f.g.. . . . ",
". . h.i.j.k.! ! l.m.n.! ! o.! [ . ! ! p.q.r.! ! ! s.t.u.v.w.. . ",
". . x.y.z.A.! ! ! ! ! ! ! B.! * . ! ! C.D.! E.! ! F.G.H.I.J.. . ",
". K.L.M.N.. ! ! . . O.! ! P.! * e ! ! Q.R.! i ! ! . . S.T.U.V.. ",
". W.X.Y.. . ! ! Z.`.. ! !  +} ! s ! ! .+++! @+! ! . . . #+$+%+. ",
". &+. . . . ! ! *+=+. ! ! . -+E ! ! ! . ;+= ! ! ! . . . . . >+,+",
"'+)+. . . . . !+~+{+. . . . ]+^+/+(+. . . . _+:+<+. . . . . [+}+",
"|+. . . . . . 1+2+3+4+. . . {.{.{.{.. . . 5+6+7+8+. . . . . . 9+",
"0+. . . . . . . a+b+c+! ! . ! ! d+e+. . . f+g+h+. . . . . . . i+",
"j+. ! ! ! ! ! . k+l+m+! ! . ! ! {.n+. . o+p+q+r+. . . . . . . ,+",
"s+. ! ! . . . . . t+u+! ! . {.v+{.! ! w+6+x+y+. . . . . . . . z+",
". . ! ! . . . . ;+= ! ! ! . ! ! A+! ! ! B+C+D+k E+F+. ! ! ! ! G+",
". . ! ! ! ! ! . ++! H+! ! I+! ! J+! ! . K+E+! H+! E+. ! ! d e . ",
". . ! ! . . . . j ! i ! ! {.! ! v+! ! . . k ! i ! k . ! ! l . . ",
". . ! ! . . . . ++! t ! ! L+! ! M+[ ! N+. - ! t ! E+. ! ! O+. . ",
". . ! ! ! ! ! . ;+= ! ! ! P+! ! Q+R+H ! S+T+- k - T+. ! ! . . . ",
". . . . U+V+W+X+Y+Z+`+ @.@+@@@. #@$@%@&@*@=@-@;@>@,@'@)@. . . . ",
". . . . . . !@~@{@]@^@/@(@. . . . . _@:@<@[@}@|@1@2@. . . . . . ",
". . . . . . . . . . . . . . . . . . . . . . . . . . . . . . . . "};
