/* XPM */
static char * superhudeditor_xpm[] = {
"32 32 354 2",
"  	c None",
". 	c #39120F",
"+ 	c #180704",
"@ 	c #03001A",
"# 	c #090038",
"$ 	c #320D0C",
"% 	c #571915",
"& 	c #120051",
"* 	c #0B0032",
"= 	c #2F0E09",
"- 	c #5E1B14",
"; 	c #14005F",
"> 	c #09022E",
", 	c #33120B",
"' 	c #83241B",
") 	c #160076",
"! 	c #0B0035",
"~ 	c #7C251E",
"{ 	c #531A15",
"] 	c #13044B",
"^ 	c #19007A",
"/ 	c #581B18",
"( 	c #8C2720",
"_ 	c #250C08",
": 	c #080020",
"< 	c #20007E",
"[ 	c #18005D",
"} 	c #75221C",
"| 	c #892A1D",
"1 	c #1E0081",
"2 	c #1D0077",
"3 	c #2B0E0C",
"4 	c #922E29",
"5 	c #9D2E2E",
"6 	c #200087",
"7 	c #20008E",
"8 	c #0B0043",
"9 	c #4F1613",
"0 	c #9A2F28",
"a 	c #B33130",
"b 	c #3D110B",
"c 	c #727272",
"d 	c #909490",
"e 	c #A6A6A6",
"f 	c #B5B5B5",
"g 	c #AEB2AE",
"h 	c #A4A4A1",
"i 	c #888887",
"j 	c #434243",
"k 	c #080327",
"l 	c #2C00A4",
"m 	c #260096",
"n 	c #18045A",
"o 	c #66231E",
"p 	c #AD3332",
"q 	c #BA3A3A",
"r 	c #C0312A",
"s 	c #F5F5F5",
"t 	c #E9E9E9",
"u 	c #E2E3E2",
"v 	c #EBEEEB",
"w 	c #F0F2F0",
"x 	c #F1F3F1",
"y 	c #E8E8E8",
"z 	c #DCDEDC",
"A 	c #EFF0EF",
"B 	c #B5B4B0",
"C 	c #1E0487",
"D 	c #2C00B7",
"E 	c #2C00A6",
"F 	c #1E006F",
"G 	c #6A251E",
"H 	c #B53633",
"I 	c #C53B38",
"J 	c #F34440",
"K 	c #3B0D07",
"L 	c #C8D4D4",
"M 	c #FFFFFF",
"N 	c #EFEFEF",
"O 	c #D0CFD0",
"P 	c #D2CFD2",
"Q 	c #7A7E73",
"R 	c #000000",
"S 	c #3B00E9",
"T 	c #3300BC",
"U 	c #3500B1",
"V 	c #20047C",
"W 	c #4E1E18",
"X 	c #BD3734",
"Y 	c #B93A35",
"Z 	c #D44040",
"` 	c #EF4845",
" .	c #EE4E4E",
"..	c #090000",
"+.	c #838F8E",
"@.	c #2F332F",
"#.	c #73756D",
"$.	c #4207E1",
"%.	c #4404E9",
"&.	c #3D00CE",
"*.	c #3000BB",
"=.	c #3400B7",
"-.	c #18044E",
";.	c #832726",
">.	c #A5302B",
",.	c #AF3634",
"'.	c #C33A39",
").	c #E0433D",
"!.	c #F84A48",
"~.	c #FF5A55",
"{.	c #EE6660",
"].	c #500DDD",
"^.	c #5206FF",
"/.	c #4406F4",
"(.	c #3A00DE",
"_.	c #3400BD",
":.	c #2F00A8",
"<.	c #2A00A5",
"[.	c #1C0280",
"}.	c #1B0908",
"|.	c #84291D",
"1.	c #8F2A27",
"2.	c #A1312A",
"3.	c #C43A3B",
"4.	c #DE433A",
"5.	c #FB4C48",
"6.	c #FC524E",
"7.	c #F95C5C",
"8.	c #FC6661",
"9.	c #FF7D7E",
"0.	c #FF7876",
"a.	c #823732",
"b.	c #250904",
"c.	c #140740",
"d.	c #4F0EDF",
"e.	c #7104FF",
"f.	c #5B04FE",
"g.	c #5306F9",
"h.	c #4C04F9",
"i.	c #4406F7",
"j.	c #4000D8",
"k.	c #3600C0",
"l.	c #24009B",
"m.	c #23008D",
"n.	c #1D0083",
"o.	c #0B031D",
"p.	c #6D201C",
"q.	c #78261D",
"r.	c #992A25",
"s.	c #BA3534",
"t.	c #8E2B2B",
"u.	c #8A2924",
"v.	c #A93430",
"w.	c #FF5A57",
"x.	c #FF6D6A",
"y.	c #FF6E6C",
"z.	c #F96D68",
"A.	c #FC5E5D",
"B.	c #FF534F",
"C.	c #58140B",
"D.	c #3C04FF",
"E.	c #4902FF",
"F.	c #5A06F9",
"G.	c #6003FE",
"H.	c #5C00FF",
"I.	c #580DFF",
"J.	c #340EB8",
"K.	c #1C027C",
"L.	c #28098A",
"M.	c #2C06AF",
"N.	c #2E00A2",
"O.	c #1C0080",
"P.	c #1F0272",
"Q.	c #43130E",
"R.	c #752020",
"S.	c #7C231B",
"T.	c #33130F",
"U.	c #32140F",
"V.	c #BF5954",
"W.	c #FF645F",
"X.	c #FF4039",
"Y.	c #4D0000",
"Z.	c #2706FF",
"`.	c #4404FF",
" +	c #5F0CDD",
".+	c #24115C",
"++	c #06041A",
"@+	c #1A0275",
"#+	c #190078",
"$+	c #0F004A",
"%+	c #5A1B13",
"&+	c #631B15",
"*+	c #0F0403",
"=+	c #1C0292",
"-+	c #3B03D7",
";+	c #0F0036",
">+	c #A33530",
",+	c #FF332F",
"'+	c #1906FF",
")+	c #3A0CDD",
"!+	c #622522",
"~+	c #FF504D",
"{+	c #D3312E",
"]+	c #000200",
"^+	c #13035E",
"/+	c #140063",
"(+	c #6B2019",
"_+	c #130081",
":+	c #3200E8",
"<+	c #350CC2",
"[+	c #020018",
"}+	c #CF4643",
"|+	c #FF3D3B",
"1+	c #BE1D18",
"2+	c #130061",
"3+	c #32110C",
"4+	c #370E0C",
"5+	c #0D0060",
"6+	c #2300C6",
"7+	c #3A08F0",
"8+	c #CCCFCC",
"9+	c #6E716E",
"0+	c #717471",
"a+	c #A7A8A7",
"b+	c #FF4E4C",
"c+	c #FF2926",
"d+	c #9D120E",
"e+	c #060020",
"f+	c #0F003E",
"g+	c #40130C",
"h+	c #000024",
"i+	c #1400A3",
"j+	c #3602FF",
"k+	c #060819",
"l+	c #56231F",
"m+	c #FF3C38",
"n+	c #F91D14",
"o+	c #330302",
"p+	c #060038",
"q+	c #390D06",
"r+	c #0D008E",
"s+	c #1D00C0",
"t+	c #330BCC",
"u+	c #F7FBF7",
"v+	c #FBFFFB",
"w+	c #FDFFFD",
"x+	c #E6E8E6",
"y+	c #EA443F",
"z+	c #FF2523",
"A+	c #C9130E",
"B+	c #070033",
"C+	c #230800",
"D+	c #000029",
"E+	c #0D008C",
"F+	c #2B00DE",
"G+	c #2C09BC",
"H+	c #E2E7E2",
"I+	c #FCFFFC",
"J+	c #9CA09C",
"K+	c #F14A47",
"L+	c #FF3432",
"M+	c #CF1512",
"N+	c #240300",
"O+	c #0C0200",
"P+	c #080054",
"Q+	c #1A00A8",
"R+	c #3000E2",
"S+	c #3407C3",
"T+	c #F9FDF9",
"U+	c #BDC4BF",
"V+	c #E14944",
"W+	c #FF3D38",
"X+	c #EE2424",
"Y+	c #640C06",
"Z+	c #020019",
"`+	c #0B005E",
" @	c #2400B6",
".@	c #2600AB",
"+@	c #F9FCF9",
"@@	c #F4F9F5",
"#@	c #BB342E",
"$@	c #E62B28",
"%@	c #681208",
"&@	c #00000C",
"*@	c #090043",
"=@	c #000016",
"-@	c #9A9E95",
";@	c #370B09",
">@	c #FBFEFB",
",@	c #D3D7D3",
"'@	c #3D423A",
")@	c #12140E",
"!@	c #E5E5E6",
"~@	c #EEEEE8",
"{@	c #EEEEEE",
"]@	c #F2F3F2",
"^@	c #F0F1F1",
"/@	c #F1F3EE",
"(@	c #FDFAF7",
"_@	c #919490",
":@	c #0D120D",
"<@	c #393B3A",
"[@	c #43423D",
"}@	c #707470",
"|@	c #C8C9CA",
"1@	c #C4BFBA",
"2@	c #C3C5C2",
"3@	c #D7D8D3",
"4@	c #D2D3D3",
"5@	c #E0DED8",
"6@	c #CECDCC",
"7@	c #C7C9C9",
"8@	c #DCDBDC",
"9@	c #8D8D8E",
"0@	c #22251F",
"a@	c #494F49",
"b@	c #292E2A",
"c@	c #62615E",
"d@	c #6C6F6A",
"e@	c #6F7066",
"f@	c #7A7C77",
"g@	c #939392",
"h@	c #A5A6A6",
"i@	c #A5A7A1",
"j@	c #B6B7B5",
"k@	c #CDD0CE",
"l@	c #838683",
"m@	c #61615D",
"n@	c #D0D1CB",
"o@	c #BEBCB7",
"p@	c #B0AFAF",
"q@	c #B5B3AE",
"r@	c #A1A09B",
"s@	c #707370",
"t@	c #595A57",
"u@	c #4A4946",
"v@	c #5A5A54",
"w@	c #616662",
"x@	c #51554F",
"y@	c #1B1E1B",
"z@	c #474444",
"A@	c #5D5A58",
"B@	c #686964",
"C@	c #6E6B68",
"D@	c #6B6A64",
"E@	c #4A4C4B",
"F@	c #676A67",
"G@	c #848384",
"H@	c #8A8D8A",
"I@	c #8A8F8B",
"J@	c #868582",
"K@	c #80827C",
"L@	c #676A68",
"M@	c #505250",
"                                                                ",
"                        . +         @ #                         ",
"                    $ %                 & *                     ",
"                  = -                     ; >                   ",
"                , '                         ) !                 ",
"                ~ {                         ] ^                 ",
"              / ( _                         : < [               ",
"              } |                             1 2               ",
"            3 4 5                             6 7 8             ",
"            9 0 a b     c d e f g h i j     k l m n             ",
"            o p q r   s t u v w x y z A B   C D E F             ",
"            G H I J K L M M N O P M M M Q R S T U V             ",
"          W X Y Z `  ...+.          @.#.R $.%.&.*.=.-.          ",
"        ;.>.,.'.).!.~.{.                ].^./.(._.:.<.[.        ",
"    }.|.1.2.3.4.5.6.7.8.9.0.a.b.  c.d.e.f.g.h.i.j.k.l.m.n.o.    ",
"    p.q.r.s.t.u.v.w.x.y.z.A.B.C.  D.E.F.G.H.I.J.K.L.M.N.O.P.    ",
"  Q.R.S.T.          U.V.W.X.Y.      Z.`. +.+R         ++@+#+$+  ",
"  %+&+*+      =+-+;+    >+,+        '+)+    !+~+{+      ]+^+/+  ",
"  (+          _+:+<+                [+      }+|+1+          2+: ",
"3+4+          5+6+7+        8+9+0+a+        b+c+d+          e+f+",
"g+            h+i+j+k+      M M M M       l+m+n+o+            p+",
"q+              r+s+t+      u+v+w+x+      y+z+A+              B+",
"C+              D+E+F+G+    H+I+M J+    K+L+M+N+              : ",
"O+                P+Q+R+S+  M T+M U+  V+W+X+Y+                Z+",
"                    `+ @.@  M +@v+@@  #@$@%@                  &@",
"                      *@=@-@M +@+@M     ;@                      ",
"                          M >@T+T+M ,@                          ",
"    '@)@                !@~@{@]@^@/@(@_@                  :@    ",
"      <@[@          }@|@1@2@3@4@5@6@7@8@9@            0@a@      ",
"        b@c@d@e@f@g@h@i@j@k@l@  m@n@o@p@q@r@s@t@u@v@w@x@        ",
"            y@z@A@B@C@D@E@          F@G@H@I@J@K@L@M@            ",
"                                                                "};
